<svg width="110" height="19" viewBox="0 0 110 19" fill="none" xmlns="http://www.w3.org/2000/svg">
<path d="M3.91998 15.0925H8.20398V18.3965H-2.43932e-05V0.280484H3.91998V15.0925ZM20.7305 3.69648V14.9805C20.7305 17.4445 19.5731 18.6765 17.2585 18.6765H13.5345C11.2198 18.6765 10.0625 17.4445 10.0625 14.9805V3.69648C10.0625 1.23248 11.2198 0.000484228 13.5345 0.000484228H17.2585C19.5731 0.000484228 20.7305 1.23248 20.7305 3.69648ZM16.8105 15.4285V3.22048C16.8105 3.07115 16.7545 2.94048 16.6425 2.82848C16.5491 2.71648 16.4278 2.66048 16.2785 2.66048H14.5145C14.3651 2.66048 14.2345 2.71648 14.1225 2.82848C14.0291 2.94048 13.9825 3.07115 13.9825 3.22048V15.4285C13.9825 15.5778 14.0291 15.7085 14.1225 15.8205C14.2345 15.9325 14.3651 15.9885 14.5145 15.9885H16.2785C16.4278 15.9885 16.5491 15.9325 16.6425 15.8205C16.7545 15.7085 16.8105 15.5778 16.8105 15.4285ZM28.917 11.2005V8.31648H34.097V14.9805C34.097 17.4445 32.9396 18.6765 30.625 18.6765H27.097C24.7823 18.6765 23.625 17.4445 23.625 14.9805V3.69648C23.625 1.23248 24.7823 0.000484228 27.097 0.000484228H30.625C32.9396 0.000484228 34.097 1.23248 34.097 3.69648V5.40448H30.373V3.22048C30.373 3.07115 30.317 2.94048 30.205 2.82848C30.1116 2.71648 29.9903 2.66048 29.841 2.66048H28.077C27.9276 2.66048 27.797 2.71648 27.685 2.82848C27.5916 2.94048 27.545 3.07115 27.545 3.22048V15.4285C27.545 15.5778 27.5916 15.7085 27.685 15.8205C27.797 15.9325 27.9276 15.9885 28.077 15.9885H29.841C29.9903 15.9885 30.1116 15.9325 30.205 15.8205C30.317 15.7085 30.373 15.5778 30.373 15.4285V11.2005H28.917ZM46.9258 3.69648V14.9805C46.9258 17.4445 45.7685 18.6765 43.4538 18.6765H39.7298C37.4151 18.6765 36.2578 17.4445 36.2578 14.9805V3.69648C36.2578 1.23248 37.4151 0.000484228 39.7298 0.000484228H43.4538C45.7685 0.000484228 46.9258 1.23248 46.9258 3.69648ZM43.0058 15.4285V3.22048C43.0058 3.07115 42.9498 2.94048 42.8378 2.82848C42.7445 2.71648 42.6231 2.66048 42.4738 2.66048H40.7098C40.5605 2.66048 40.4298 2.71648 40.3178 2.82848C40.2245 2.94048 40.1778 3.07115 40.1778 3.22048V15.4285C40.1778 15.5778 40.2245 15.7085 40.3178 15.8205C40.4298 15.9325 40.5605 15.9885 40.7098 15.9885H42.4738C42.6231 15.9885 42.7445 15.9325 42.8378 15.8205C42.9498 15.7085 43.0058 15.5778 43.0058 15.4285ZM65.8684 18.3965H61.9484V3.36048C61.9484 3.21115 61.8924 3.08048 61.7804 2.96848C61.6871 2.85648 61.5658 2.80048 61.4164 2.80048H59.9044C59.7551 2.80048 59.6244 2.85648 59.5124 2.96848C59.4191 3.08048 59.3724 3.21115 59.3724 3.36048V18.3965H55.4524V3.69648C55.4524 1.23248 56.6098 0.000484228 58.9244 0.000484228H62.3964C64.7111 0.000484228 65.8684 1.23248 65.8684 3.69648V18.3965ZM75.6921 0.000484228C78.0067 0.000484228 79.1641 1.23248 79.1641 3.69648V18.3965H75.2441V12.3205H72.4161V18.3965H68.4961V3.69648C68.4961 1.23248 69.6534 0.000484228 71.9681 0.000484228H75.6921ZM72.4161 9.29648H75.2441V3.22048C75.2441 3.07115 75.1881 2.94048 75.0761 2.82848C74.9827 2.71648 74.8614 2.66048 74.7121 2.66048H72.9481C72.7987 2.66048 72.6681 2.71648 72.5561 2.82848C72.4627 2.94048 72.4161 3.07115 72.4161 3.22048V9.29648ZM85.9779 18.3965H82.0579V3.69648C82.0579 1.23248 83.2152 0.000484228 85.5299 0.000484228H87.6019C88.9646 0.000484228 89.9352 0.448484 90.5139 1.34448C91.0552 0.448484 92.0259 0.000484228 93.4259 0.000484228H95.4979C97.8126 0.000484228 98.9699 1.23248 98.9699 3.69648V18.3965H95.0499V3.36048C95.0499 3.21115 94.9939 3.08048 94.8819 2.96848C94.7886 2.85648 94.6672 2.80048 94.5179 2.80048H93.0059C92.8566 2.80048 92.7259 2.85648 92.6139 2.96848C92.5206 3.08048 92.4739 3.21115 92.4739 3.36048V18.3965H88.5539V3.36048C88.5539 3.21115 88.4979 3.08048 88.3859 2.96848C88.2926 2.85648 88.1712 2.80048 88.0219 2.80048H86.5099C86.3606 2.80048 86.2299 2.85648 86.1179 2.96848C86.0246 3.08048 85.9779 3.21115 85.9779 3.36048V18.3965ZM105.584 15.1485H109.924V18.3965H101.664V0.280484H109.924V3.47248H105.584V7.72848H109.644V10.8085H105.584V15.1485Z" fill="#222222"/>
</svg>
