<svg width="492" height="222" viewBox="0 0 492 222" fill="none" xmlns="http://www.w3.org/2000/svg">
<g clip-path="url(#clip0_668_7270)">
<path d="M250.728 205.111C299.221 205.111 338.533 165.848 338.533 117.414C338.533 68.9802 299.221 29.7168 250.728 29.7168C202.235 29.7168 162.923 68.9802 162.923 117.414C162.923 165.848 202.235 205.111 250.728 205.111Z" fill="#0C6F23"/>
<path d="M278.62 76.8047L255.883 76.8303L222.181 76.8688L179.697 211.665H255.883H321.791L278.62 76.8047Z" fill="url(#paint0_linear_668_7270)"/>
<path d="M250.747 106.502C275.476 106.502 295.523 86.4796 295.523 61.7811C295.523 37.0826 275.476 17.0605 250.747 17.0605C226.018 17.0605 205.972 37.0826 205.972 61.7811C205.972 86.4796 226.018 106.502 250.747 106.502Z" fill="#EBF9E6"/>
<path d="M295.433 61.7812C295.433 61.7812 280.546 70.9434 250.407 70.9434C220.268 70.9434 205.76 61.7812 205.76 61.7812C205.76 61.7812 154 76.6689 154 86.9722C154 97.2756 212.038 106.508 250.4 106.508C288.763 106.508 346.994 97.2756 346.994 86.9722C346.994 76.6689 295.426 61.7812 295.426 61.7812H295.433Z" fill="#62BB4A"/>
<path d="M203.661 62.3457C203.661 62.3457 208.745 89.0242 241.439 89.0242C274.133 89.0242 296.774 63.9614 296.774 63.9614C296.774 63.9614 282.6 68.379 250.401 68.379C218.201 68.379 203.654 62.3457 203.654 62.3457H203.661Z" fill="#4EA63F"/>
<path d="M249.123 17.3954V4.57227" stroke="#3E64C3" stroke-width="3" stroke-miterlimit="10"/>
<path d="M249.373 9.47627C251.993 9.47627 254.117 7.35494 254.117 4.73814C254.117 2.12134 251.993 0 249.373 0C246.753 0 244.629 2.12134 244.629 4.73814C244.629 7.35494 246.753 9.47627 249.373 9.47627Z" fill="#D15B2D"/>
<path d="M250.747 222.001C289.987 222.001 321.797 217.333 321.797 211.576C321.797 205.818 289.987 201.15 250.747 201.15C211.507 201.15 179.697 205.818 179.697 211.576C179.697 217.333 211.507 222.001 250.747 222.001Z" fill="url(#paint1_linear_668_7270)"/>
<path d="M280.321 156.346L252.487 177.235C251.691 177.831 250.561 177.671 249.958 176.876L226.373 145.53C225.776 144.735 225.936 143.606 226.732 143.004L249.604 125.84L261.102 127.808L280.674 153.826C281.271 154.621 281.111 155.75 280.315 156.352L280.321 156.346Z" fill="#4EA63F"/>
<path d="M249.611 125.84L261.108 127.808L256.114 131.905C255.459 132.444 254.49 132.328 253.982 131.649L249.617 125.84H249.611Z" fill="#0C6F23"/>
<path d="M243.32 151.333C244.596 151.333 245.631 150.3 245.631 149.025C245.631 147.75 244.596 146.717 243.32 146.717C242.044 146.717 241.009 147.75 241.009 149.025C241.009 150.3 242.044 151.333 243.32 151.333Z" fill="white"/>
<path d="M255.921 141.882C257.198 141.882 258.232 140.849 258.232 139.574C258.232 138.299 257.198 137.266 255.921 137.266C254.645 137.266 253.61 138.299 253.61 139.574C253.61 140.849 254.645 141.882 255.921 141.882Z" fill="white"/>
<path d="M258.768 156.589C259.916 155.727 259.341 153.028 257.484 150.559C255.627 148.091 253.191 146.788 252.043 147.649C250.895 148.511 251.47 151.21 253.327 153.679C255.184 156.147 257.62 157.45 258.768 156.589Z" fill="white"/>
<path d="M302.18 138.944L291.568 140.105C291.035 140.162 290.779 139.476 291.222 139.175C293.186 137.848 296.017 135.238 297.994 130.475C299.971 125.711 299.599 122.729 299.349 121.761C299.291 121.537 299.4 121.306 299.605 121.191L309.228 115.952C309.543 115.786 309.928 115.972 309.979 116.324C310.23 118.017 310.589 122.544 308.49 128C306.25 133.815 303.2 137.886 302.526 138.746C302.443 138.855 302.314 138.925 302.18 138.938V138.944Z" fill="#D5F0CB"/>
<path d="M182.38 178.375C181.141 181.453 177.489 192.641 186.521 199.829C187.022 200.226 187.702 200.309 188.28 200.047L201.741 193.93C202.73 193.481 203.038 192.237 202.383 191.372C200.252 188.576 196.542 182.601 198.044 176.452C198.345 175.215 197.26 174.093 196.022 174.387L183.549 177.375C183.016 177.503 182.586 177.869 182.38 178.375Z" fill="#9DDB87"/>
<path d="M208.616 96.032C202.107 96.032 196.805 90.7425 196.805 84.2348C196.805 77.727 202.101 72.4375 208.616 72.4375C215.132 72.4375 220.428 77.727 220.428 84.2348C220.428 90.7425 215.132 96.032 208.616 96.032Z" fill="#0C6F23"/>
<path d="M292.878 96.032C286.368 96.032 281.066 90.7425 281.066 84.2348C281.066 77.727 286.362 72.4375 292.878 72.4375C299.393 72.4375 304.69 77.727 304.69 84.2348C304.69 90.7425 299.393 96.032 292.878 96.032Z" fill="#0C6F23"/>
<path d="M292.878 93.2948C297.887 93.2948 301.948 89.2387 301.948 84.2353C301.948 79.2319 297.887 75.1758 292.878 75.1758C287.868 75.1758 283.807 79.2319 283.807 84.2353C283.807 89.2387 287.868 93.2948 292.878 93.2948Z" fill="#EBF9E6"/>
<path d="M250.657 100.821C244.148 100.821 238.846 95.5315 238.846 89.0238C238.846 82.5161 244.142 77.2266 250.657 77.2266C257.173 77.2266 262.469 82.5161 262.469 89.0238C262.469 95.5315 257.173 100.821 250.657 100.821Z" fill="#0C6F23"/>
<path d="M251.049 185.377V195.635" stroke="#F5FFF2" stroke-width="3" stroke-linecap="round" stroke-linejoin="round"/>
<path d="M260.678 181.529V187.3" stroke="#F5FFF1" stroke-width="3" stroke-linecap="round" stroke-linejoin="round"/>
<path d="M260.678 193.07V195.635" stroke="#F5FFF2" stroke-width="3" stroke-linecap="round" stroke-linejoin="round"/>
<path d="M241.42 180.889V186.659" stroke="#F5FFF2" stroke-width="3" stroke-linecap="round" stroke-linejoin="round"/>
<path d="M241.42 190.506V193.712" stroke="#F5FFF2" stroke-width="3" stroke-linecap="round" stroke-linejoin="round"/>
<path d="M269.421 42.6112C273.264 42.6112 276.38 39.4995 276.38 35.6611C276.38 31.8226 273.264 28.7109 269.421 28.7109C265.578 28.7109 262.463 31.8226 262.463 35.6611C262.463 39.4995 265.578 42.6112 269.421 42.6112Z" fill="#BAE6AA"/>
<path d="M282.902 52.5417C284.792 52.5417 286.324 51.0117 286.324 49.1244C286.324 47.237 284.792 45.707 282.902 45.707C281.012 45.707 279.48 47.237 279.48 49.1244C279.48 51.0117 281.012 52.5417 282.902 52.5417Z" fill="#BAE6AA"/>
<path d="M249.123 49.8633C242.723 49.8633 240.373 53.1204 240.373 59.6345C240.373 66.1486 246.78 70.7265 249.123 70.7265C251.466 70.7265 257.873 66.1486 257.873 59.6345C257.873 53.1204 255.523 49.8633 249.123 49.8633Z" fill="#BAE6AA"/>
<path d="M250.728 61.6792C250.728 61.6792 250.612 59.012 252.346 57.8066C254.079 56.6013 256.634 57.4668 256.634 57.4668C256.634 57.4668 256.698 60.8521 254.785 61.66C252.346 62.6922 250.728 61.6792 250.728 61.6792Z" fill="#EBF9E6"/>
<path d="M247.621 61.6792C247.621 61.6792 247.737 59.012 246.003 57.8066C244.27 56.6013 241.715 57.4668 241.715 57.4668C241.715 57.4668 241.651 60.8521 243.564 61.66C246.003 62.6922 247.621 61.6792 247.621 61.6792Z" fill="#EBF9E6"/>
<path d="M250.401 73.5088C219.863 73.5088 205.002 64.3338 204.38 63.9491C203.179 63.1926 202.826 61.6089 203.584 60.41C204.341 59.211 205.927 58.8584 207.127 59.6149C207.262 59.6983 221.507 68.3859 250.401 68.3859C279.294 68.3859 293.944 59.6855 294.085 59.5957C295.292 58.8584 296.871 59.2367 297.615 60.442C298.354 61.6474 297.981 63.2246 296.774 63.962C296.139 64.3531 280.919 73.5088 250.401 73.5088Z" fill="#0C6F23"/>
<path d="M292.878 75.1816C292.435 75.1816 291.998 75.2265 291.575 75.2842L284.205 86.8635C284.796 88.8062 286.015 90.4668 287.633 91.6144L297.346 76.3614C296.03 75.6176 294.508 75.1816 292.884 75.1816H292.878Z" fill="#D5F0CB"/>
<path d="M299.246 77.791L289.739 92.7235C290.721 93.089 291.774 93.2941 292.884 93.2941C293.019 93.2941 293.141 93.2813 293.276 93.2749L301.255 80.7467C300.787 79.6311 300.1 78.6309 299.252 77.791H299.246Z" fill="#D5F0CB"/>
<path d="M250.51 98.0839C255.519 98.0839 259.58 94.0278 259.58 89.0244C259.58 84.0209 255.519 79.9648 250.51 79.9648C245.5 79.9648 241.439 84.0209 241.439 89.0244C241.439 94.0278 245.5 98.0839 250.51 98.0839Z" fill="#EBF9E6"/>
<path d="M250.51 79.9707C250.067 79.9707 249.63 80.0156 249.206 80.0733L241.837 91.6525C242.428 93.5952 243.647 95.2558 245.265 96.4035L254.977 81.1504C253.661 80.4067 252.14 79.9707 250.516 79.9707H250.51Z" fill="#D5F0CB"/>
<path d="M256.878 82.5801L247.37 97.5126C248.353 97.878 249.405 98.0832 250.516 98.0832C250.651 98.0832 250.773 98.0704 250.908 98.064L258.887 85.5358C258.418 84.4202 257.731 83.42 256.884 82.5801H256.878Z" fill="#D5F0CB"/>
<path d="M208.616 93.2948C213.626 93.2948 217.687 89.2387 217.687 84.2353C217.687 79.2319 213.626 75.1758 208.616 75.1758C203.607 75.1758 199.546 79.2319 199.546 84.2353C199.546 89.2387 203.607 93.2948 208.616 93.2948Z" fill="#EBF9E6"/>
<path d="M208.616 75.1816C208.173 75.1816 207.737 75.2265 207.313 75.2842L199.944 86.8635C200.534 88.8062 201.754 90.4668 203.372 91.6144L213.084 76.3614C211.768 75.6176 210.247 75.1816 208.623 75.1816H208.616Z" fill="#D5F0CB"/>
<path d="M214.984 77.791L205.477 92.7235C206.459 93.089 207.512 93.2941 208.623 93.2941C208.758 93.2941 208.88 93.2813 209.014 93.2749L216.994 80.7467C216.525 79.6311 215.838 78.6309 214.991 77.791H214.984Z" fill="#D5F0CB"/>
<path d="M250.747 17.0605C242.903 17.0605 235.533 19.0802 229.126 22.6194C229.704 22.3885 250.221 14.3292 270.737 25.761C291.189 37.1608 295.311 58.4599 295.446 59.1844C294.097 35.6989 274.608 17.0605 250.747 17.0605Z" fill="#BAE6AA"/>
<path d="M347 86.9719C347 77.8611 306.654 65.1598 297.339 62.3516C297.339 62.3516 337.859 77.6752 338.835 85.4652C339.804 93.2552 318.106 99.4616 318.087 99.4616L332.845 95.8199C341.524 93.1014 346.994 90.1264 346.994 86.9719H347Z" fill="#71CB52"/>
<path d="M154 86.9719C154 77.8611 194.346 65.1598 203.661 62.3516C203.661 62.3516 163.135 77.6688 162.166 85.4652C161.196 93.2552 182.894 99.4616 182.913 99.4616L168.155 95.8199C159.469 93.1014 154 90.1264 154 86.9719Z" fill="#71CB52"/>
</g>
<path d="M9.66797 164.5V138.934L75.4102 36.4531H116.016V138.504H135.781V164.5H116.016V192H85.293V164.5H9.66797ZM42.3242 138.504H85.7227V71.9023H84.2188L42.3242 137.215V138.504Z" fill="#0C6F23"/>
<path d="M356.668 164.5V138.934L422.41 36.4531H463.016V138.504H482.781V164.5H463.016V192H432.293V164.5H356.668ZM389.324 138.504H432.723V71.9023H431.219L389.324 137.215V138.504Z" fill="#0C6F23"/>
<defs>
<linearGradient id="paint0_linear_668_7270" x1="250.747" y1="76.8047" x2="250.747" y2="211.665" gradientUnits="userSpaceOnUse">
<stop stop-color="white"/>
<stop offset="0.1" stop-color="#F6F7FA"/>
<stop offset="0.41" stop-color="#E1E5EF"/>
<stop offset="0.72" stop-color="#D4DAE8"/>
<stop offset="1" stop-color="#D0D7E6"/>
</linearGradient>
<linearGradient id="paint1_linear_668_7270" x1="250.747" y1="201.15" x2="250.747" y2="222.001" gradientUnits="userSpaceOnUse">
<stop stop-color="white"/>
<stop offset="0.6" stop-color="#E6E9F2"/>
<stop offset="1" stop-color="#DBE0EC"/>
</linearGradient>
<clipPath id="clip0_668_7270">
<rect width="193" height="222" fill="white" transform="translate(154)"/>
</clipPath>
</defs>
</svg>
