<svg width="470" height="184" viewBox="0 0 470 184" fill="none" xmlns="http://www.w3.org/2000/svg">
<path d="M56.7188 159.844C24.2773 159.844 0.644531 140.723 0 113.867H31.3672C32.0117 126.113 43.1836 134.277 56.7188 134.277C72.832 134.277 84.2188 122.891 84.2188 106.777C84.2188 90.2344 72.6172 78.8477 56.2891 78.6328C44.6875 78.6328 36.5234 82.9297 31.7969 91.7383H2.57812L10.957 2.14844H106.777V28.5742H37.5977L33.3008 67.8906H34.5898C40.3906 60.1562 51.9922 54.7852 65.7422 54.7852C94.3164 54.7852 115.586 76.0547 115.586 105.918C115.586 137.285 91.7383 159.844 56.7188 159.844Z" fill="#0C6F23"/>
<path d="M406.941 159.844C368.055 159.844 344.422 130.84 344.422 79.9219C344.422 29.0039 368.055 0 406.941 0C445.828 0 469.461 29.2188 469.461 79.9219C469.461 131.055 445.828 159.844 406.941 159.844ZM406.941 133.203C424.988 133.203 436.59 115.801 436.375 79.9219C436.375 44.4727 424.988 26.4258 406.941 26.4258C388.895 26.4258 377.508 44.4727 377.508 79.9219C377.293 115.801 388.895 133.203 406.941 133.203Z" fill="#0C6F23"/>
<g clip-path="url(#clip0_0_1)">
<path d="M245.628 24.2512C245.628 24.2512 240.81 39.6523 236.536 41.4768C232.262 43.3014 230.26 38.6995 233.497 34.3583L243.352 23.3164C243.352 23.3164 244.416 23.8287 245.628 24.2512Z" fill="#613235"/>
<path d="M231.283 41.288C222.982 39.414 209.526 30.9112 211.973 27.3654C214.371 23.887 217.653 26.7947 217.653 26.7947L234.453 33.9986C242.517 38.4343 237.663 43.144 231.283 41.288Z" fill="#613235"/>
<path d="M234.956 34.2898C234.79 34.1909 234.628 34.0965 234.453 33.9977C234.987 34.1774 218.878 27.0903 218.111 26.6184C217.347 26.1466 214.371 23.8861 211.973 27.3644C209.526 30.9102 222.982 39.413 231.283 41.287C232.038 41.5072 232.769 41.633 233.465 41.678C233.995 39.2062 234.606 36.73 234.956 34.2898Z" fill="#FFB200"/>
<path d="M221.81 38.1097C221.895 38.8962 221.972 39.7051 222.044 40.5231C222.062 40.7163 222.079 40.914 222.097 41.1073C222.021 41.6421 221.824 42.1364 221.28 42.5094C221.253 42.5274 221.231 42.5499 221.208 42.5723L211.363 42.7656V42.7746L211.493 43.3947C210.002 43.1655 208.503 43.0038 206.999 42.86L203.416 42.9319L202.917 43.7992L203.12 42.478C202.792 42.4465 202.464 42.4105 202.132 42.3791C199.564 39.9433 200.448 35.4313 200.727 32.2091C201.27 29.3913 202.563 26.7174 205.566 26.205V26.1736L207.739 25.7017L208.157 25.6657C208.26 25.9399 208.503 26.1511 208.889 26.1241C210.505 26.0118 212.696 26.9151 214.142 25.9264C214.321 25.8051 214.407 25.5849 214.402 25.3781L214.627 25.3691L214.851 25.4096L215.614 25.5444C215.614 25.5444 218.066 26.5241 219.812 29.6565L221.761 35.292C221.761 35.292 224.446 37.3458 221.815 38.1187L221.81 38.1097Z" fill="#FFDA08"/>
<path d="M212.566 23.253C212.476 23.2575 210.07 22.916 208.076 23.3924C206.083 23.8687 204.484 25.2439 204.484 25.2439L208.803 28.0796L207.205 29.7649L216.494 33.1085L217.927 28.3043L216.27 27.801L217.392 24.0934C217.392 24.0934 212.961 23.2216 212.566 23.2485V23.253Z" fill="#FFB200"/>
<path d="M214.191 21.6167L213.711 24.6008L213.486 26.0029L213.28 27.2702L209.679 26.2321L211.865 19.4102L214.191 21.6167Z" fill="#784346"/>
<path d="M209.432 18.9607C208.741 21.1358 209.944 23.4592 212.112 24.1513C214.492 24.9108 215.484 25.0367 216.122 24.3221C216.342 24.0794 216.517 23.7334 216.692 23.284C216.88 22.8031 217.069 22.2054 217.298 21.4684C217.985 19.2978 216.786 16.9698 214.613 16.2823C212.44 15.5902 210.123 16.7856 209.432 18.9607Z" fill="#784346"/>
<path d="M214.519 19.7602C214.519 19.7602 213.881 18.9693 212.422 19.5085" stroke="#1B193B" stroke-width="0.75" stroke-miterlimit="10"/>
<path d="M215.902 20.04C215.902 20.04 216.571 19.703 217.455 20.3007" stroke="#1B193B" stroke-width="0.75" stroke-miterlimit="10"/>
<path d="M214.564 22.5515L215.673 22.6144C215.673 22.6144 215.134 21.8909 215.632 20.291" stroke="#47222C" stroke-width="0.5" stroke-miterlimit="10"/>
<path d="M216.512 21.8772C216.948 21.8772 216.948 21.2031 216.512 21.2031C216.077 21.2031 216.077 21.8772 216.512 21.8772Z" fill="#1B193B"/>
<path d="M213.742 21.2932C214.178 21.2932 214.178 20.6191 213.742 20.6191C213.307 20.6191 213.307 21.2932 213.742 21.2932Z" fill="#1B193B"/>
<path d="M215.421 30.9642C215.089 31.0811 208.081 26.5421 207.739 25.6927L210.137 25.4815L213.055 25.4051L213.536 25.3916L214.51 25.3691H214.622L214.833 25.4006H214.847C216.045 26.5466 215.421 30.9642 215.421 30.9642Z" fill="#784346"/>
<path d="M213.132 16.5114C214.258 16.3091 215.444 16.6642 216.27 17.4551C217.096 18.2461 217.554 19.455 217.482 20.6683C217.953 19.8325 218.106 18.8078 217.9 17.891C217.689 16.9742 217.123 16.1698 216.355 15.7114C216.05 15.5272 215.718 15.4013 215.385 15.28C214.434 14.9339 213.414 14.6463 212.404 14.8396C211.39 15.0328 210.388 15.8372 210.222 16.9203" fill="#1B193B"/>
<path d="M245.543 23.7203C245.745 23.3383 245.992 22.9788 246.203 22.5968C246.427 22.1879 246.598 21.8598 246.885 21.5722C246.899 21.5587 246.912 21.5452 246.925 21.5317C246.741 21.6486 246.629 21.725 246.629 21.725C246.629 21.725 249.116 18.6466 248.667 18.3769C248.218 18.1073 246.373 20.8307 246.373 20.8307C246.373 20.8307 247.693 16.9343 247.19 16.7321C246.683 16.5299 245.309 20.4936 245.309 20.4936C245.309 20.4936 245.691 17.0422 245.139 17.0242C244.586 17.0107 243.154 23.9091 243.168 24.0933C243.181 24.2551 245.094 23.8282 245.543 23.7248V23.7203Z" fill="#613235"/>
<path d="M246.557 21.5183C246.557 21.5183 248.645 19.7252 248.726 19.9679C248.807 20.2106 245.92 25.5944 244.788 25.3742C243.657 25.154 243.168 24.0934 243.168 24.0934L244.573 22.2464L246.521 21.4599" fill="#613235"/>
<path d="M243.172 24.0924C243.226 24.016 242.521 22.4251 242.521 22.4251C242.521 22.4251 242.184 22.0162 242.445 21.0455C242.705 20.0748 243.657 19.2928 243.765 18.9288C243.877 18.5648 244.447 19.2523 243.846 20.259C243.244 21.2657 244.137 22.0791 244.137 22.0791L243.172 24.0924Z" fill="#613235"/>
<path d="M222.044 40.5227C218.78 40.1317 219.148 37.6914 219.148 37.6914C220.167 38.2666 221.074 38.4734 221.806 38.1094C221.891 38.8958 221.967 39.7047 222.039 40.5227H222.044Z" fill="#FFB200"/>
<path d="M234.291 32.694C234.291 32.694 238.408 40.4866 238.251 40.9855C238.094 41.4843 236.909 41.5877 236.909 41.5877C236.909 41.5877 236.321 42.3382 235.558 42.6303C234.794 42.9224 232.85 42.1809 232.85 42.1809L233.052 32.6445L233.833 33.3096L234.296 32.694H234.291Z" fill="#FFDA08"/>
<path d="M213.176 22.7129L215.345 23.5038C215.345 23.5038 214.51 24.1779 213.922 24.0341C213.334 23.8903 213.176 22.7129 213.176 22.7129Z" fill="#FEFEFE"/>
<path d="M214.968 15.5942C215.444 15.7515 215.776 16.2278 215.866 16.6952C215.951 17.1626 215.834 17.6165 215.677 18.0389C215.457 18.6231 215.129 19.2029 214.55 19.477C213.976 19.7512 213.257 19.6792 212.584 19.5624C211.816 19.4276 211.035 19.2388 210.334 18.8523C209.885 18.6007 209.441 18.2591 208.943 18.2322C209.396 17.1581 209.957 16.129 210.617 15.1717C210.747 14.983 210.887 14.7942 211.084 14.6729C211.524 14.4077 212.139 14.5426 212.683 14.6864C213.266 14.8392 213.85 14.9965 214.434 15.1493" fill="#1B193B"/>
<path d="M212.368 17.9943L211.143 20.4166C211.143 20.4166 211.268 19.1043 210.034 19.5402C208.794 19.9717 209.859 21.4817 210.352 21.5131C210.846 21.5446 210.586 23.504 210.586 23.504C210.586 23.504 208.319 22.6007 207.488 19.8503C206.657 17.1 208.821 13.2396 213.661 14.808C218.497 16.3764 211.883 18.4077 211.883 18.4077" fill="#1B193B"/>
<path d="M214.833 25.4006L213.073 27.7195L213.536 25.3916L214.51 25.3691H214.622L214.833 25.4006Z" fill="#66393B"/>
<path d="M213.711 24.601L213.486 26.0031C212.943 25.6346 211.834 24.7538 211.277 23.3651C211.237 23.2752 212.283 24.2639 213.711 24.601Z" fill="#66393B"/>
<path d="M215.174 31.6299C217.154 35.8498 218.066 40.5057 217.855 45.157C217.828 45.7367 218.726 45.7322 218.753 45.157C218.973 40.3394 217.998 35.5398 215.951 31.176C215.704 30.6547 214.932 31.1086 215.174 31.6299Z" fill="#FFB200"/>
<path d="M210.536 15.8239C208.961 15.6576 207.344 15.4824 205.944 14.7453C204.543 14.0083 203.393 12.5612 203.488 10.9793C203.577 9.46934 204.772 8.20651 206.15 7.59083C207.528 6.97514 209.077 6.87627 210.586 6.79089C211.174 6.75943 211.776 6.72797 212.328 6.92571C213.109 7.20883 213.67 7.9144 214.029 8.6649C215.421 11.5636 214.016 15.4734 211.098 16.8171" fill="#1B193B"/>
<path d="M327.677 47.0626L325.782 45.0987C327.547 42.645 328.714 39.8901 329.275 37.0319L332.01 37.0814C333.626 37.1128 334.955 35.823 334.982 34.2052L335.009 32.6772C335.04 31.0593 333.752 29.7291 332.135 29.7021L329.401 29.6527C328.939 26.7765 327.87 23.9812 326.195 21.4691L328.157 19.5726C329.32 18.4491 329.352 16.5975 328.229 15.4381L327.165 14.337C326.043 13.1731 324.193 13.1416 323.035 14.2651L321.073 16.1616C318.626 14.3954 315.869 13.227 313.014 12.6652L313.063 9.92836C313.094 8.31051 311.806 6.98027 310.19 6.95331L308.663 6.92634C307.047 6.89489 305.718 8.18468 305.691 9.80253L305.642 12.5394C302.768 13.0023 299.976 14.0719 297.466 15.7481L295.571 13.7843C294.449 12.6203 292.599 12.5888 291.441 13.7123L290.341 14.7774C289.178 15.9009 289.146 17.7525 290.269 18.912L292.164 20.8758C290.399 23.3251 289.232 26.0844 288.671 28.9427L285.936 28.8932C284.32 28.8618 282.991 30.1516 282.964 31.7694L282.937 33.2974C282.906 34.9152 284.194 36.25 285.811 36.2724L288.545 36.3219C289.007 39.1981 290.076 41.9934 291.75 44.5055L289.788 46.402C288.626 47.5255 288.594 49.3771 289.717 50.5365L290.781 51.6376C291.903 52.8015 293.753 52.833 294.911 51.7095L296.873 49.813C299.325 51.5791 302.077 52.7476 304.932 53.3093L304.883 56.0462C304.851 57.6641 306.14 58.9943 307.756 59.0213L309.283 59.0482C310.899 59.0797 312.228 57.7899 312.255 56.1721L312.304 53.4352C315.178 52.9723 317.97 51.9027 320.48 50.2264L322.375 52.1903C323.497 53.3543 325.347 53.3857 326.505 52.2622L327.605 51.1972C328.768 50.0736 328.799 48.2221 327.677 47.0626ZM315.519 44.7033C314.45 45.301 313.319 45.7414 312.161 46.02C309.916 46.5683 307.554 46.5278 305.327 45.8987C304.178 45.5751 303.06 45.0942 302.014 44.4651C301.049 43.8808 300.142 43.1618 299.32 42.3124C298.498 41.4631 297.812 40.5283 297.264 39.5441C296.667 38.4745 296.227 37.342 295.948 36.1826C295.401 33.931 295.441 31.5717 296.07 29.3426C296.393 28.1922 296.873 27.0731 297.502 26.026C298.085 25.0598 298.804 24.152 299.652 23.3296C300.501 22.5072 301.435 21.8196 302.418 21.2713C303.487 20.6736 304.618 20.2332 305.776 19.9546C308.021 19.4063 310.383 19.4467 312.61 20.0759C313.759 20.3995 314.877 20.8803 315.923 21.5095C316.888 22.0937 317.795 22.8128 318.617 23.6622C319.438 24.5115 320.125 25.4463 320.673 26.4305C321.27 27.5001 321.71 28.6326 321.989 29.792C322.536 32.039 322.496 34.4029 321.867 36.632C321.544 37.7824 321.064 38.9015 320.435 39.9486C319.851 40.9148 319.133 41.8226 318.285 42.645C317.436 43.4674 316.502 44.155 315.519 44.7033Z" fill="#4EA63F"/>
<path d="M246.804 142.34H223.467V170.207H246.804V142.34Z" fill="#114A1E"/>
<path d="M246.804 146.582V160.235C242.139 157.88 224.369 148.825 224.369 147.521L246.804 146.582Z" fill="#021406"/>
<path d="M311.779 40.375H161.9C160.618 40.375 159.578 41.4152 159.578 42.6984V145.945C159.578 147.228 160.618 148.268 161.9 148.268H311.779C313.061 148.268 314.1 147.228 314.1 145.945V42.6984C314.1 41.4152 313.061 40.375 311.779 40.375Z" fill="#0C6F23"/>
<path d="M308.475 47.2145V133.136C308.475 133.684 308.026 134.129 307.478 134.129H166.196C165.649 134.129 165.2 133.684 165.2 133.136V47.2145C165.2 46.6662 165.649 46.2168 166.196 46.2168H307.478C308.026 46.2168 308.475 46.6662 308.475 47.2145Z" fill="#FEFEFE"/>
<path d="M313.099 169.48H160.58C160.027 169.48 159.578 169.929 159.578 170.483V176.266C159.578 176.82 160.027 177.269 160.58 177.269H313.099C313.652 177.269 314.1 176.82 314.1 176.266V170.483C314.1 169.929 313.652 169.48 313.099 169.48Z" fill="#114A1E"/>
<path d="M293.708 135.693L301.013 135.522L304.663 135.437L306.49 135.392C307.11 135.388 307.684 135.361 308.205 135.203C308.457 135.118 308.695 135.01 308.879 134.862C309.058 134.714 309.197 134.543 309.292 134.332C309.476 133.909 309.516 133.397 309.503 132.795L309.606 129.132C309.682 126.692 309.795 124.251 309.965 121.816C309.965 121.784 309.992 121.762 310.024 121.762C310.051 121.762 310.073 121.784 310.077 121.816C310.248 124.251 310.36 126.687 310.437 129.123L310.54 132.772C310.567 133.374 310.571 134.134 310.185 134.803C310.001 135.136 309.723 135.433 309.404 135.63C309.085 135.828 308.744 135.936 308.412 136.012C307.747 136.156 307.087 136.116 306.495 136.107L304.667 136.062L301.013 135.976L293.708 135.806C293.677 135.806 293.654 135.779 293.654 135.747C293.654 135.716 293.681 135.693 293.708 135.693Z" fill="#FEFEFE"/>
<path d="M304.82 110.492L305.193 114.325C301.094 115.485 297.385 117.507 294.256 120.172L291.275 117.714C289.515 116.262 286.915 116.514 285.465 118.275L284.091 119.943C282.641 121.704 282.892 124.306 284.652 125.758L287.633 128.216C285.622 131.798 284.351 135.829 284.001 140.08L280.172 140.453C277.904 140.674 276.243 142.691 276.463 144.961L276.67 147.118C276.89 149.388 278.905 151.05 281.173 150.83L285.002 150.457C286.161 154.56 288.181 158.272 290.844 161.405L288.388 164.389C286.938 166.15 287.189 168.752 288.949 170.204L290.615 171.579C292.375 173.031 294.974 172.779 296.424 171.017L298.88 168.033C302.458 170.047 306.486 171.319 310.733 171.669L311.106 175.502C311.326 177.772 313.341 179.435 315.609 179.215L317.759 179.008C320.027 178.788 321.688 176.77 321.468 174.5L321.095 170.667C325.194 169.507 328.903 167.485 332.032 164.82L335.013 167.278C336.773 168.73 339.373 168.478 340.823 166.717L342.197 165.049C343.647 163.288 343.395 160.686 341.635 159.234L338.654 156.776C340.666 153.194 341.936 149.163 342.286 144.912L346.116 144.539C348.383 144.318 350.045 142.3 349.825 140.031L349.618 137.874C349.398 135.604 347.382 133.942 345.115 134.162L341.285 134.535C340.127 130.432 338.107 126.72 335.444 123.587L337.9 120.603C339.35 118.842 339.099 116.24 337.339 114.788L335.673 113.413C333.913 111.961 331.314 112.213 329.863 113.975L327.408 116.959C323.829 114.945 319.802 113.673 315.555 113.323L315.182 109.489C314.962 107.22 312.946 105.557 310.679 105.777L308.528 105.984C306.261 106.204 304.6 108.222 304.82 110.492ZM316.188 123.781C317.889 124.059 319.528 124.567 321.059 125.277C324.022 126.648 326.595 128.769 328.508 131.416C329.5 132.782 330.308 134.297 330.91 135.914C331.466 137.411 331.834 139.002 331.996 140.665C332.158 142.327 332.099 143.959 331.839 145.532C331.561 147.235 331.053 148.875 330.344 150.408C328.975 153.374 326.855 155.949 324.211 157.863C322.846 158.857 321.333 159.665 319.717 160.268C318.222 160.825 316.632 161.193 314.971 161.355C313.31 161.517 311.68 161.459 310.109 161.198C308.407 160.919 306.769 160.411 305.238 159.701C302.274 158.331 299.702 156.21 297.789 153.563C296.797 152.196 295.989 150.682 295.387 149.064C294.83 147.567 294.462 145.977 294.301 144.314C294.139 142.651 294.197 141.02 294.458 139.447C294.736 137.744 295.243 136.103 295.953 134.571C297.322 131.605 299.441 129.03 302.086 127.115C303.451 126.122 304.964 125.313 306.58 124.711C308.075 124.154 309.664 123.785 311.326 123.623C312.987 123.461 314.617 123.52 316.188 123.781Z" fill="#71CB52"/>
<path d="M295.32 121.119C296.653 119.762 298.175 118.594 299.823 117.641C301.471 116.688 303.235 115.947 305.049 115.385L305.08 115.479C304.223 115.92 303.383 116.342 302.544 116.76C302.131 116.98 301.709 117.182 301.305 117.412C300.892 117.627 300.487 117.856 300.083 118.086C299.275 118.544 298.494 119.047 297.708 119.555L297.125 119.951C296.932 120.086 296.748 120.229 296.554 120.364L295.975 120.773C295.787 120.917 295.594 121.056 295.396 121.191L295.324 121.119H295.32Z" fill="#FEFEFE"/>
<path d="M284.895 120.454C285.083 120.049 285.326 119.676 285.6 119.321C285.874 118.971 286.188 118.643 286.551 118.364C286.911 118.09 287.31 117.834 287.768 117.726C288.222 117.614 288.715 117.632 289.129 117.82L289.102 117.915C288.666 117.888 288.258 117.937 287.871 118.076C287.485 118.207 287.131 118.436 286.789 118.679C286.453 118.93 286.134 119.218 285.838 119.528C285.537 119.838 285.249 120.162 284.976 120.499L284.89 120.449L284.895 120.454Z" fill="#FEFEFE"/>
<path d="M321.36 161.252C321.36 161.252 321.347 161.225 321.333 161.225H321.338C321.338 161.225 321.356 161.225 321.369 161.221C321.391 161.221 321.427 161.207 321.459 161.198C321.522 161.176 321.584 161.154 321.647 161.127C321.773 161.073 321.899 161.01 322.024 160.947C322.276 160.821 322.518 160.682 322.761 160.533C323.241 160.237 323.708 159.913 324.157 159.572C325.064 158.898 325.913 158.152 326.712 157.356C328.297 155.761 329.661 153.95 330.694 151.963C331.731 149.981 332.432 147.829 332.795 145.613C333.145 143.393 333.172 141.11 332.957 138.836L333.154 138.805C333.666 141.052 333.846 143.398 333.576 145.721C333.451 146.88 333.204 148.031 332.867 149.154C332.521 150.273 332.072 151.366 331.529 152.404C330.438 154.48 328.975 156.349 327.246 157.918C326.384 158.704 325.459 159.41 324.476 160.035C323.982 160.34 323.475 160.628 322.954 160.879C322.693 161.005 322.429 161.127 322.155 161.23C322.015 161.279 321.876 161.329 321.737 161.369C321.665 161.387 321.593 161.405 321.517 161.423C321.477 161.428 321.441 161.437 321.396 161.437C321.373 161.437 321.356 161.437 321.32 161.437C321.302 161.437 321.293 161.432 321.27 161.423C321.243 161.41 321.216 161.387 321.198 161.365L321.369 161.261L321.36 161.252Z" fill="#FEFEFE"/>
<path d="M123.257 91.4373C122.97 91.28 121.398 87.9634 121.623 83.694C121.847 79.4247 124.429 75.8295 130.827 76.5036C137.224 77.1777 139.469 90.8845 139.469 90.8845" fill="#FFDA08"/>
<path d="M133.143 176.604L138.778 167.355L144.691 169.971L137.265 178.505" fill="#1B193B"/>
<path d="M89.014 176.19L94.0919 171.072L101.926 170.658L93.1266 177.678L89.014 176.19Z" fill="#1B193B"/>
<path d="M166.291 80.0095C166.291 80.0095 155.399 89.1055 151.371 88.4179C147.34 87.7303 148.049 83.3711 152.512 81.7038L165.056 78.2344C165.056 78.2344 165.599 79.1197 166.295 80.0095H166.291Z" fill="#F58C62"/>
<path d="M139.15 108.456C136.717 107.103 134.032 105.625 132.214 103.477C132.093 103.333 131.985 103.185 131.882 103.027L120.904 103.769C120.904 103.769 115.606 138.247 112.104 142.579C109.258 146.103 87.2989 159.733 91.9817 170.973C94.3522 171.57 99.7578 173.022 99.7578 173.022C102.708 174.577 122.112 152.475 126.956 145.334C131.226 139.043 136.892 119.008 139.635 108.681C139.478 108.618 139.317 108.542 139.155 108.456H139.15Z" fill="#FFB200"/>
<path d="M133.143 176.604L137.408 177.345C137.408 177.345 144.305 179.444 144.471 180.266C144.646 181.129 132.56 180.145 132.56 180.145C131.208 179.264 131.922 177.988 133.143 176.608V176.604Z" fill="#1B193B"/>
<path d="M149.418 88.121C142.082 87.4829 129.498 81.7799 131.136 78.4678C132.744 75.2186 135.922 77.3218 135.922 77.3218L151.201 81.5283C158.658 84.382 155.107 88.9659 149.418 88.1165V88.121Z" fill="#F58C62"/>
<path d="M151.901 81.6491C151.744 81.5862 151.591 81.5188 151.425 81.4559L135.9 77.263C135.9 77.263 132.681 75.1373 131.024 78.4629C129.331 81.8559 142.105 87.5903 149.566 88.197C150.253 88.2958 150.904 88.3138 151.515 88.2689C151.672 86.0488 151.897 83.8153 151.901 81.6491Z" fill="#FFB200"/>
<path d="M126.835 90.5426C126.817 90.5202 126.804 90.4977 126.786 90.4752C125.134 90.4797 123.612 90.4527 122.525 90.4258C122.718 90.7943 122.961 91.1314 123.252 91.4414C123.648 91.4369 125.295 91.41 127.432 91.383C127.221 91.0864 127.019 90.8078 126.831 90.5471L126.835 90.5426Z" fill="#FFDA08"/>
<path d="M135.586 89.8772C135.527 89.8907 135.46 89.9042 135.397 89.9132C135.689 90.3761 135.972 90.8389 136.25 91.2973C138.279 91.2973 139.855 91.3063 140.331 91.3558C140.78 91.0187 140.937 90.5873 140.996 90.1244C140.897 89.2301 140.789 88.3448 140.677 87.4909C142.976 86.7584 140.574 85.0102 140.574 85.0102L138.742 80.0937C137.144 77.3793 134.962 76.5659 134.962 76.5659L134.293 76.467L134.095 76.4355L133.897 76.4445C133.906 76.6288 133.839 76.822 133.682 76.9344C132.434 77.8332 130.485 77.0827 129.067 77.2175C128.73 77.249 128.51 77.0692 128.411 76.8265L128.173 76.8535C128.173 76.8535 128.182 76.876 128.196 76.885C131.527 80.3094 134.104 85.0461 135.59 89.8817L135.586 89.8772Z" fill="#FFDA08"/>
<path d="M139.276 96.5646C139.348 96.5242 139.42 96.4792 139.492 96.4343C139.51 96.5601 139.474 96.686 139.397 96.7848L139.465 96.9062C139.658 96.9421 139.873 96.9062 140.071 96.9466C140.322 96.9961 140.547 97.3286 140.345 97.4904L140.434 97.8724C140.318 97.9443 140.21 98.0162 140.098 98.0881C140.304 98.4836 140.421 98.7083 140.421 98.7083L142.432 100.533C142.208 100.173 142.087 99.9801 142.087 99.9801L141.018 95.6613L138.773 95.6523C138.953 95.9759 139.123 96.2815 139.276 96.5646Z" fill="#FFDA08"/>
<path d="M165.173 140.66C163.296 135.078 154.411 120.054 148.229 109.911C144.605 107.817 136.991 103.35 135.056 101.633C134.858 101.773 134.638 101.881 134.414 101.809C134.01 101.674 134.032 101.094 134.131 100.681C133.875 100.703 133.597 100.726 133.368 100.609C133.134 100.487 132.991 100.168 133.143 99.9571C133.22 99.8492 133.35 99.8043 133.48 99.7728C132.604 98.6313 131.527 97.1348 130.44 95.6113L121.115 95.5664C121.115 95.5664 114.3 103.22 118.7 110.927C123.1 118.634 147.456 137.181 147.299 140.102C147.2 141.999 130.445 167.934 136.573 170.109L138.993 171.264L140.996 172.226L142.899 173.134C146.078 174.882 168.185 149.607 165.173 140.655V140.66Z" fill="#FFDA08"/>
<path d="M127.756 91.9707L124.604 92.11L124.469 92.3572L128.191 92.4381C128.079 92.2808 127.971 92.128 127.863 91.9797C127.827 91.9797 127.791 91.9752 127.751 91.9707H127.756Z" fill="#FFB200"/>
<path d="M124.254 92.3543L124.334 91.7206C124.043 91.6982 123.755 91.6757 123.463 91.6532C123.387 91.5858 123.324 91.5094 123.257 91.4375C123.199 91.4375 123.154 91.4375 123.154 91.4375C121.775 91.9633 121.542 93.8868 121.115 95.5675L123.881 92.3453L124.254 92.3543Z" fill="#FFB200"/>
<path d="M140.25 91.4268L136.43 91.5931C136.641 91.9481 136.852 92.2986 137.049 92.6402L140.286 92.7121L141.018 95.6602H141.067C141.121 94.1502 141.377 92.5638 140.484 91.3908C140.484 91.3774 140.425 91.3684 140.327 91.3594C140.318 91.3639 140.313 91.3729 140.304 91.3774C140.282 91.3953 140.264 91.4133 140.241 91.4313L140.25 91.4268Z" fill="#FFB200"/>
<path d="M124.334 91.7191L124.254 92.3528H124.469L124.604 92.1101L127.756 91.9708C127.791 91.9708 127.827 91.9753 127.868 91.9797C127.72 91.773 127.576 91.5708 127.437 91.373C125.3 91.4 123.652 91.427 123.257 91.4315C123.324 91.5034 123.392 91.5798 123.463 91.6472C123.755 91.6697 124.043 91.6921 124.334 91.7146V91.7191Z" fill="#FFB200"/>
<path d="M136.25 91.2977C136.308 91.3966 136.371 91.4954 136.43 91.5943L140.25 91.428C140.25 91.428 140.286 91.3921 140.313 91.3741C140.322 91.3696 140.327 91.3606 140.336 91.3561C139.86 91.3067 138.284 91.2932 136.255 91.2977H136.25Z" fill="#FFB200"/>
<path d="M137.049 92.6406C137.696 93.7417 138.279 94.7663 138.773 95.6516L141.018 95.6606L140.286 92.7125L137.049 92.6406Z" fill="#FFB200"/>
<path d="M129.736 94.6236C129.206 93.8731 128.68 93.1361 128.191 92.444L124.469 92.3631L124.186 92.8889L124.254 92.3586L123.881 92.3496L121.115 95.5718L130.44 95.6168C130.207 95.2887 129.969 94.9562 129.736 94.6281V94.6236Z" fill="#FFB200"/>
<path d="M124.186 92.8883L124.469 92.3625L124.254 92.3535L124.186 92.8883Z" fill="#FFB200"/>
<path d="M135.397 89.9186C133.287 90.3455 129.812 90.4668 126.786 90.4758C126.804 90.4983 126.817 90.5208 126.835 90.5432C127.024 90.8039 127.226 91.0825 127.437 91.3791C130.126 91.3432 133.57 91.3072 136.25 91.2982C135.976 90.8443 135.689 90.3814 135.397 89.9141V89.9186Z" fill="#FFDA08"/>
<path d="M134.194 88.0339C134.194 88.0339 134.189 88.0249 134.185 88.0159L133.686 87.2744L133.633 87.1935C133.471 86.9508 133.305 86.7126 133.139 86.4745L133.112 86.434C132.955 86.2048 132.797 85.9801 132.636 85.7599C132.618 85.7329 132.6 85.706 132.577 85.679C132.42 85.4633 132.268 85.2476 132.111 85.0364C132.079 84.9914 132.043 84.951 132.012 84.906C131.859 84.6993 131.702 84.4971 131.549 84.2948C131.522 84.2634 131.5 84.2319 131.473 84.2005C131.325 84.0117 131.181 83.823 131.033 83.6432C131.015 83.6207 130.993 83.5938 130.975 83.5713C130.822 83.3825 130.669 83.1983 130.517 83.0185C130.481 82.9826 130.449 82.9421 130.413 82.9017C130.265 82.7264 130.117 82.5601 129.969 82.3939C129.938 82.3624 129.911 82.3309 129.879 82.2995C129.731 82.1422 129.583 81.9849 129.439 81.8366C129.43 81.8276 129.421 81.8141 129.412 81.8051C129.26 81.6523 129.111 81.5085 128.963 81.3692C128.936 81.3423 128.905 81.3153 128.878 81.2883C128.734 81.158 128.591 81.0322 128.451 80.9153L128.371 80.8479C128.227 80.7311 128.083 80.6187 127.94 80.5154C127.94 80.5109 127.926 80.5064 127.917 80.5019C127.783 80.403 127.648 80.3176 127.513 80.2367C127.491 80.2232 127.468 80.2098 127.45 80.1963C127.316 80.1199 127.185 80.0525 127.06 79.994C127.033 79.9851 127.01 79.9716 126.988 79.9626C126.858 79.9087 126.732 79.8592 126.606 79.8278C126.597 79.8233 126.584 79.8233 126.575 79.8188C126.454 79.7873 126.337 79.7693 126.22 79.7604C126.207 79.7604 126.193 79.7604 126.18 79.7604C126.063 79.7514 125.951 79.7559 125.843 79.7738C125.825 79.7783 125.803 79.7783 125.785 79.7828C125.677 79.8053 125.569 79.8368 125.47 79.8817C125.47 79.8817 125.461 79.8862 125.457 79.8862C125.398 79.9087 125.349 79.9356 125.3 79.9671C124.954 80.2008 124.667 80.4479 124.424 80.7086C124.397 80.7356 124.375 80.767 124.348 80.794C124.316 80.8299 124.285 80.8614 124.258 80.8929C124.245 80.9108 124.236 80.9243 124.222 80.9423C124.186 80.9872 124.15 81.0322 124.119 81.0771C124.087 81.1176 124.056 81.1625 124.025 81.2074C123.993 81.2524 123.966 81.2928 123.939 81.3378C123.908 81.3872 123.881 81.4321 123.854 81.4771C123.832 81.522 123.805 81.567 123.782 81.6074C123.755 81.6613 123.733 81.7108 123.71 81.7647C123.692 81.8051 123.67 81.8456 123.656 81.886C123.625 81.949 123.603 82.0164 123.58 82.0838C123.571 82.1107 123.558 82.1377 123.549 82.1647C123.522 82.259 123.495 82.3534 123.472 82.4523C123.463 82.4748 123.463 82.5017 123.454 82.5242C123.441 82.5961 123.423 82.6725 123.414 82.7444C123.414 82.7759 123.405 82.8073 123.401 82.8433C123.392 82.9107 123.383 82.9781 123.378 83.0455C123.378 83.077 123.378 83.1129 123.378 83.1444C123.374 83.2118 123.369 83.2837 123.369 83.3511V83.4455C123.369 83.5174 123.369 83.5938 123.374 83.6657C123.378 83.6926 123.378 83.7196 123.378 83.7511C123.387 83.832 123.392 83.9084 123.401 83.9892C123.405 84.0117 123.405 84.0342 123.41 84.0522C123.423 84.151 123.436 84.2454 123.454 84.3443V84.3578C123.535 84.7847 123.661 85.2116 123.818 85.6341C123.818 85.6386 123.823 85.6431 123.823 85.652C123.863 85.7509 123.899 85.8498 123.939 85.9487C123.939 85.9531 123.948 85.9621 123.948 85.9666C123.993 86.0655 124.034 86.1644 124.079 86.2632C124.083 86.2677 124.083 86.2722 124.087 86.2767C124.321 86.798 124.599 87.3014 124.896 87.7777C124.9 87.7912 124.905 87.8002 124.914 87.8092C124.963 87.8901 125.012 87.9665 125.062 88.0474C125.08 88.0698 125.093 88.0968 125.111 88.1238C125.152 88.1822 125.187 88.2451 125.228 88.3035C125.255 88.3395 125.277 88.3754 125.304 88.4114C125.331 88.4563 125.358 88.4968 125.39 88.5372C125.421 88.5911 125.457 88.6406 125.493 88.69C125.506 88.708 125.52 88.7305 125.533 88.7529C125.69 88.9686 125.843 89.1844 125.991 89.3821C126.216 89.6787 126.489 90.0517 126.79 90.4786C129.821 90.4697 133.291 90.3483 135.402 89.9214C135.011 89.2922 134.607 88.663 134.198 88.0384L134.194 88.0339Z" fill="#FFDA08"/>
<path d="M140.098 98.0875C140.21 98.0156 140.318 97.9437 140.434 97.8718L140.345 97.4898C140.547 97.328 140.322 96.9955 140.071 96.9461C139.873 96.9056 139.658 96.9416 139.465 96.9056L139.397 96.7843C139.474 96.6854 139.51 96.5596 139.492 96.4337C139.42 96.4787 139.348 96.5236 139.276 96.5641C139.119 96.2809 138.953 95.9753 138.773 95.6518L130.44 95.6113C131.527 97.1348 132.604 98.6313 133.48 99.7728C133.35 99.8043 133.219 99.8492 133.143 99.9571C132.991 100.168 133.134 100.487 133.368 100.609C133.597 100.726 133.875 100.703 134.131 100.681C134.032 101.094 134.01 101.674 134.414 101.809C134.638 101.881 134.858 101.773 135.056 101.633C136.991 103.35 144.605 107.817 148.229 109.911C145.481 105.404 143.267 101.858 142.437 100.537L140.425 98.7077C140.425 98.7077 140.309 98.483 140.102 98.0875H140.098Z" fill="#FFB200"/>
<path d="M136.43 91.5938L131.594 91.805L131.72 92.3577C130.436 92.1915 129.152 92.0836 127.863 91.9892C127.971 92.142 128.079 92.2903 128.191 92.4476L137.049 92.6454C136.847 92.3038 136.641 91.9533 136.43 91.5982V91.5938Z" fill="#FF8C00"/>
<path d="M131.594 91.8092L136.43 91.5935C136.371 91.4946 136.308 91.3957 136.25 91.2969C133.57 91.3014 130.122 91.3418 127.437 91.3778C127.576 91.5755 127.72 91.7732 127.868 91.9845C129.156 92.0833 130.44 92.1912 131.724 92.353L131.599 91.8092H131.594Z" fill="#FF8C00"/>
<path d="M137.049 92.6411L128.191 92.4434C128.68 93.1354 129.206 93.8725 129.735 94.623C129.969 94.951 130.207 95.2836 130.44 95.6117L138.773 95.6521C138.279 94.7668 137.7 93.7421 137.049 92.6411Z" fill="#FF8C00"/>
<path d="M129.947 74.7461C129.834 74.7596 125.421 75.6808 125.421 75.6808L128.115 78.0762L126.768 79.3884L136.344 82.9477L137.467 77.7796L136.044 77.856L136.753 75.1955C136.753 75.1955 133.197 74.409 129.942 74.7461H129.947Z" fill="#FFB200"/>
<path d="M128.047 76.8631C128.618 77.5057 135.181 80.9706 135.181 80.9706C135.181 80.9706 135.366 77.4428 134.293 76.4631L134.095 76.4316L130.153 76.6249L128.047 76.8631Z" fill="#FEA574"/>
<path d="M132.766 76.967L129.475 77.0839L129.435 70.7832L131.98 71.9921L132.398 74.6256L132.6 75.9154L132.766 76.967Z" fill="#FEA574"/>
<path d="M126.835 71.0749C126.853 73.0837 128.941 74.6926 130.943 74.6791C133.139 74.6611 134.005 74.4949 134.337 73.7219C134.454 73.4612 134.508 73.1197 134.531 72.6972C134.557 72.2434 134.548 71.6906 134.539 71.012C134.517 69.0076 132.883 67.3943 130.876 67.4123C128.873 67.4302 126.813 69.0661 126.831 71.0749H126.835Z" fill="#FEA574"/>
<path d="M131.751 70.3469C131.751 70.3469 131.002 69.857 129.933 70.7109" stroke="#1B193B" stroke-width="0.75" stroke-miterlimit="10"/>
<path d="M132.982 70.2039C132.982 70.2039 133.448 69.741 134.351 69.9972" stroke="#1B193B" stroke-width="0.75" stroke-miterlimit="10"/>
<path d="M132.551 72.6659L133.493 72.4143C133.251 71.8525 132.847 71.9559 132.824 70.4863" stroke="#F05E4A" stroke-width="0.5" stroke-miterlimit="10"/>
<path d="M133.902 71.6233C134.337 71.6233 134.337 70.9492 133.902 70.9492C133.466 70.9492 133.466 71.6233 133.902 71.6233Z" fill="#1B193B"/>
<path d="M131.428 71.8968C131.864 71.8968 131.864 71.2227 131.428 71.2227C130.993 71.2227 130.993 71.8968 131.428 71.8968Z" fill="#1B193B"/>
<path d="M89.014 176.191L92.8482 176.708C93.4004 176.928 100.041 179.104 100.202 179.926C100.373 180.789 88.4169 179.728 88.4169 179.728C87.3438 179.027 87.8332 177.742 89.0095 176.196L89.014 176.191Z" fill="#1B193B"/>
<path d="M166.484 79.5784C166.811 79.3942 167.166 79.2459 167.507 79.0616C167.866 78.8684 168.149 78.7021 168.5 78.6302C168.517 78.6302 168.531 78.6212 168.549 78.6167C168.36 78.6167 168.239 78.6167 168.239 78.6167C168.239 78.6167 171.544 77.5246 171.341 77.1112C171.135 76.6977 168.477 77.8302 168.477 77.8302C168.477 77.8302 171.31 75.5742 171.032 75.1877C170.753 74.7968 167.849 77.0752 167.849 77.0752C167.849 77.0752 169.775 74.7024 169.375 74.4283C168.975 74.1541 164.629 78.5763 164.553 78.7201C164.486 78.8459 166.106 79.4391 166.484 79.5784Z" fill="#F58C62"/>
<path d="M168.28 78.4279C168.28 78.4279 170.677 78.0953 170.623 78.3155C170.569 78.5358 165.869 81.1423 165.137 80.4412C164.405 79.7402 164.549 78.72 164.549 78.72L166.47 78.0234L168.284 78.3695" fill="#F58C62"/>
<path d="M164.549 78.7209C164.625 78.6895 164.858 77.175 164.858 77.175C164.858 77.175 164.805 76.7121 165.46 76.1189C166.116 75.5256 167.189 75.3998 167.444 75.1796C167.7 74.9639 167.799 75.7414 166.87 76.1998C165.945 76.6582 166.219 77.6873 166.219 77.6873L164.544 78.7164L164.549 78.7209Z" fill="#F58C62"/>
<path d="M149.768 88.9564C150.015 86.3678 150.267 83.7793 150.514 81.1862C150.527 81.0379 150.55 80.8761 150.653 80.7683C150.756 80.6604 150.976 80.6649 151.026 80.8087C151.057 80.8986 151.003 80.9975 151.017 81.0963C151.044 81.2716 151.29 81.33 151.443 81.2401C151.596 81.1503 151.672 80.975 151.739 80.8132C152.157 81.348 152.072 82.1075 151.977 82.7816C151.686 84.9253 151.524 87.0869 151.502 89.253C151.259 89.1811 151.062 88.9609 151.021 88.7047C150.913 88.9834 150.536 89.1137 150.28 88.9609" fill="#FFDA08"/>
<path d="M132.6 75.9147C132.021 75.8473 131.181 75.5147 130.297 74.3867C130.297 74.3867 131.41 74.6878 132.398 74.6249L132.6 75.9147Z" fill="#F58C62"/>
<path d="M131.662 73.0391L133.381 73.2098C133.381 73.2098 133.287 74.203 132.335 74.1626C131.383 74.1221 131.662 73.0391 131.662 73.0391Z" fill="#FEFEFE"/>
<path d="M129.547 74.3496C129.363 74.0036 129.183 73.6575 128.999 73.3115C128.941 73.1991 128.873 73.0778 128.757 73.0374C128.645 72.9969 128.519 73.0463 128.402 73.0643C127.931 73.1317 127.54 72.6644 127.369 72.1925C127.266 71.9138 127.208 71.6038 127.28 71.3161C127.351 71.0285 127.585 70.7724 127.863 70.7544C128.258 70.7319 128.537 71.1499 128.685 71.5408C128.833 71.9318 128.954 72.3812 129.296 72.588C129.372 71.5768 129.251 70.5432 128.936 69.5859C129.448 69.7747 130.063 69.2758 130.032 68.7006C130.22 69.0781 130.665 69.2893 131.055 69.1815C131.446 69.0736 131.738 68.6602 131.729 68.2287C131.971 68.2737 132.173 68.4624 132.362 68.6332C132.551 68.804 132.766 68.9747 133.013 68.9882C133.26 69.0017 133.529 68.7635 133.471 68.5029C133.624 68.7905 134.005 68.8624 134.288 68.7321C134.571 68.5972 134.759 68.3051 134.876 67.9995C135.042 67.5636 135.078 67.0288 134.831 66.6378C134.584 66.2469 134.001 66.0941 133.682 66.4266C133.26 65.5593 132.057 65.4919 131.266 65.9862C131.141 66.0671 131.011 66.157 130.867 66.175C130.71 66.1929 130.562 66.121 130.418 66.0536C129.551 65.6447 128.627 65.3301 127.679 65.3166C126.732 65.3076 125.753 65.6267 125.084 66.3412C124.415 67.0558 124.119 68.2018 124.492 69.132C123.769 69.5365 123.495 70.5566 123.706 71.397C123.917 72.2374 124.509 72.9115 125.165 73.4328C125.605 73.7834 126.085 74.0845 126.611 74.2597C127.522 74.5608 128.505 74.4575 129.453 74.3406" fill="#1B193B"/>
<path d="M124.442 70.6696C124.083 71.4831 123.36 72.1032 122.548 72.4628C121.735 72.8223 120.837 72.9526 119.948 72.9841C119.611 72.9976 119.23 72.9751 119.019 72.7144C118.839 72.4942 118.853 72.1572 118.992 71.9055C119.131 71.6538 119.36 71.4696 119.602 71.3168C120.19 70.9348 120.855 70.6741 121.542 70.5528C119.903 71.0067 118.049 70.5798 116.778 69.4473C116.437 69.1462 116.118 68.7372 116.172 68.2833C116.226 67.8249 116.648 67.5013 117.075 67.3261C117.982 66.9441 119.064 66.9935 119.935 67.4564C119.117 67.1913 118.484 66.5531 117.914 65.9105C117.375 65.2993 116.846 64.6207 116.724 63.8162C116.603 63.0118 117.039 62.0636 117.838 61.9063C118.498 61.7759 119.131 62.1894 119.656 62.6073C120.464 63.2455 121.228 63.9421 121.941 64.6836C121.762 64.0095 121.452 63.3668 121.38 62.6747C121.313 61.9827 121.573 61.1827 122.215 60.9176C122.947 60.6165 123.778 61.1558 124.191 61.8254C124.604 62.4995 124.761 63.2994 125.143 63.9915C125.071 63.4702 125.003 62.9309 125.12 62.4141C125.237 61.8973 125.574 61.3984 126.076 61.2456C126.557 61.0973 127.091 61.2951 127.45 61.6456C127.809 61.9961 128.016 62.4725 128.142 62.9579C128.577 64.5892 128.214 66.4138 127.185 67.753" fill="#1B193B"/>
<path d="M135.137 82.3493C137.673 85.949 138.953 90.3037 138.755 94.7034C138.728 95.2831 139.626 95.2786 139.653 94.7034C139.855 90.1599 138.535 85.6119 135.913 81.8954C135.581 81.428 134.804 81.8729 135.137 82.3493Z" fill="#FFB200"/>
<path d="M212.346 107.439H208.031C207.183 102.734 205.328 98.3749 202.697 94.5954L205.759 91.5305C207.569 89.7239 207.569 86.7893 205.759 84.9827L204.049 83.2705C202.244 81.4594 199.312 81.4594 197.507 83.2705L194.445 86.3354C190.67 83.7019 186.315 81.8458 181.614 80.9965V76.6777C181.614 74.1206 179.544 72.0488 176.989 72.0488H174.565C172.01 72.0488 169.941 74.1206 169.941 76.6777V80.9965C165.24 81.8458 160.885 83.7019 157.109 86.3354L154.047 83.2705C152.242 81.4594 149.311 81.4594 147.506 83.2705L145.795 84.9827C143.986 86.7893 143.986 89.7239 145.795 91.5305L148.857 94.5954C146.226 98.3749 144.372 102.734 143.523 107.439H139.209C136.654 107.439 134.584 109.511 134.584 112.068V114.495C134.584 117.052 136.654 119.124 139.209 119.124H143.523C144.372 123.829 146.226 128.188 148.857 131.968L145.795 135.033C143.986 136.839 143.986 139.774 145.795 141.581L147.506 143.293C149.311 145.104 152.242 145.104 154.047 143.293L157.109 140.228C160.885 142.861 165.24 144.717 169.941 145.567V149.886C169.941 152.443 172.01 154.514 174.565 154.514H176.989C179.544 154.514 181.614 152.443 181.614 149.886V145.567C186.315 144.717 190.67 142.861 194.445 140.228L197.507 143.293C199.312 145.104 202.244 145.104 204.049 143.293L205.759 141.581C207.569 139.774 207.569 136.839 205.759 135.033L202.697 131.968C205.328 128.188 207.183 123.829 208.031 119.124H212.346C214.9 119.124 216.97 117.052 216.97 114.495V112.068C216.97 109.511 214.9 107.439 212.346 107.439ZM196.304 118.697C195.81 120.567 195.069 122.342 194.113 123.973C192.263 127.137 189.623 129.779 186.463 131.631C184.833 132.588 183.06 133.33 181.192 133.824C179.463 134.282 177.649 134.525 175.782 134.525C173.914 134.525 172.1 134.282 170.372 133.824C168.504 133.33 166.731 132.588 165.101 131.631C161.94 129.779 159.3 127.137 157.45 123.973C156.494 122.342 155.753 120.567 155.255 118.697C154.797 116.967 154.555 115.151 154.555 113.282C154.555 111.412 154.797 109.597 155.255 107.866C155.749 105.997 156.49 104.222 157.45 102.59C159.3 99.4265 161.94 96.784 165.101 94.9325C166.731 93.9753 168.504 93.2337 170.372 92.7394C172.1 92.281 173.914 92.0383 175.782 92.0383C177.649 92.0383 179.463 92.281 181.192 92.7394C183.06 93.2337 184.833 93.9753 186.463 94.9325C189.623 96.784 192.263 99.4265 194.113 102.59C195.069 104.222 195.81 105.997 196.304 107.866C196.762 109.597 197.005 111.412 197.005 113.282C197.005 115.151 196.762 116.967 196.304 118.697Z" fill="#4EA63F"/>
<path d="M201.526 95.6836C202.895 97.3194 204.035 99.1485 204.915 101.09C205.8 103.031 206.437 105.081 206.868 107.17L206.761 107.193C206.366 106.191 205.979 105.202 205.607 104.222C205.405 103.737 205.225 103.247 205.014 102.766C204.821 102.281 204.606 101.804 204.395 101.333C203.973 100.38 203.492 99.4541 203.012 98.5238L202.635 97.8317C202.504 97.6025 202.365 97.3823 202.24 97.1486L201.844 96.4566C201.701 96.2319 201.571 96.0027 201.44 95.7645L201.526 95.6926V95.6836Z" fill="#FEFEFE"/>
<path d="M203.393 84.1113C203.824 84.3675 204.215 84.6776 204.579 85.0236C204.942 85.3697 205.275 85.7561 205.544 86.1876C205.809 86.619 206.051 87.0909 206.123 87.6167C206.199 88.1335 206.123 88.6818 205.872 89.1267L205.768 89.0862C205.845 88.6009 205.831 88.1425 205.719 87.6976C205.611 87.2527 205.4 86.8302 205.167 86.4258C204.924 86.0213 204.637 85.6348 204.323 85.2708C204.013 84.9023 203.681 84.5428 203.331 84.2012L203.398 84.1113H203.393Z" fill="#FEFEFE"/>
<path d="M153.975 120.422C153.975 120.422 154.007 120.409 154.011 120.395V120.4C154.011 120.4 154.011 120.422 154.011 120.436C154.011 120.463 154.02 120.503 154.025 120.535C154.043 120.607 154.061 120.679 154.083 120.755C154.132 120.903 154.186 121.052 154.245 121.195C154.361 121.487 154.487 121.78 154.626 122.063C154.905 122.633 155.214 123.186 155.547 123.725C156.202 124.809 156.943 125.838 157.742 126.817C159.35 128.759 161.217 130.48 163.323 131.846C165.42 133.221 167.741 134.233 170.174 134.875C172.612 135.509 175.149 135.783 177.712 135.787L177.726 136.012C175.167 136.34 172.531 136.291 169.972 135.738C168.693 135.468 167.435 135.073 166.223 134.574C165.011 134.066 163.848 133.446 162.748 132.732C160.553 131.284 158.627 129.451 157.064 127.352C156.283 126.305 155.592 125.191 155.003 124.031C154.716 123.447 154.451 122.849 154.227 122.238C154.115 121.932 154.007 121.622 153.921 121.308C153.881 121.15 153.841 120.989 153.814 120.827C153.8 120.746 153.787 120.661 153.778 120.575C153.778 120.53 153.769 120.49 153.778 120.436C153.778 120.409 153.778 120.391 153.791 120.35C153.796 120.332 153.8 120.319 153.809 120.297C153.827 120.265 153.854 120.238 153.881 120.225L153.98 120.427L153.975 120.422Z" fill="#FEFEFE"/>
<path d="M152.637 106.014C152.637 106.014 156.71 107.659 156.763 107.965C156.817 108.27 156.072 108.135 156.095 108.347C156.117 108.558 156.781 108.796 156.665 109.201C156.548 109.601 155.789 109.398 155.789 109.398C155.789 109.398 156.526 109.807 156.431 110.212C156.337 110.616 155.43 110.279 155.43 110.279C155.43 110.279 156.05 110.513 156.018 110.971C155.987 111.43 154.788 111.034 153.917 110.607C153.046 110.18 151.448 108.859 151.708 107.992C151.973 107.12 152.637 106.01 152.637 106.01V106.014Z" fill="#FEA574"/>
<path d="M136.053 99.7726C134.18 97.9121 128.734 90.6407 126.718 88.187C124.698 85.7332 121.964 81.5268 125.605 78.8169C129.619 76.0441 141.557 96.8515 141.557 96.8515L152.633 106.015L151.852 108.716C151.852 108.716 137.925 101.638 136.053 99.7771V99.7726Z" fill="#FEA574"/>
<path d="M140.901 95.7368C140.214 96.3121 139.51 96.8783 138.778 97.4176C137.826 98.1097 136.802 98.8152 135.949 99.6646C133.983 97.6468 128.698 90.6001 126.718 88.1868C124.927 86.0117 122.57 82.4569 124.608 79.7875C124.864 79.4459 125.192 79.1224 125.605 78.8168C125.654 78.7808 125.704 78.7538 125.758 78.7269C129.323 76.8663 138.387 91.5169 140.901 95.7368Z" fill="#FFE524"/>
<path d="M152.391 106.041C153.284 105.695 154.133 105.259 154.658 105.857C155.183 106.454 156.171 106.567 156.171 106.567C156.171 106.567 156.103 107.048 155.529 107.048C154.954 107.048 154.568 106.544 154.568 106.544L153.329 107.209L152.391 106.041Z" fill="#FEA574"/>
<path d="M141.534 96.0195C139.77 97.2149 138.077 98.5137 136.466 99.9114C136.25 100.1 135.976 100.302 135.702 100.226C135.289 100.109 135.285 99.5294 135.37 99.1114C135.114 99.1474 134.84 99.1833 134.602 99.0755C134.364 98.9676 134.207 98.653 134.346 98.4373C134.454 98.2755 134.665 98.2351 134.854 98.1901C135.384 98.0553 135.846 97.7452 136.299 97.4441C137.709 96.5049 139.119 95.5701 140.529 94.6309C140.565 94.7882 140.497 94.9679 140.372 95.0668C140.605 95.1657 140.879 95.0758 141.13 95.1162C141.382 95.1522 141.624 95.4757 141.431 95.6465" fill="#FFDA08"/>
<path d="M312.376 81.3697L295.728 71.5547L294.543 73.6264C294.543 73.6264 306.724 88.6051 312.493 88.7714C314.388 87.7512 312.372 81.3697 312.372 81.3697H312.376Z" fill="#66393B"/>
<path d="M309.314 79.0104C305.399 76.4982 300.586 73.6445 300.586 73.6445L297.708 78.6374C297.708 78.6374 309.314 89.877 314.01 90.1781C314.37 90.0792 314.652 89.904 314.89 89.7062C313.472 87.1446 309.175 78.3902 309.314 79.0149V79.0104Z" fill="#FFB200"/>
<path d="M368.205 131.061L375.631 122.203L379.358 123.749L372.785 133.766L368.205 131.061Z" fill="#784346"/>
<path d="M307.765 167.351L305.175 178.698L301.125 179.022L302.423 167.027L307.765 167.351Z" fill="#784346"/>
<path d="M302.122 170.86C301.448 170.81 300.775 170.743 300.106 170.671C300.173 164.685 300.609 156.075 302.319 149.378C305.242 137.946 323.035 111.363 323.035 111.363C323.035 111.363 344.015 117.745 342.156 121.731C321.409 138.031 311.99 160.425 308.412 171.327C306.32 171.121 304.214 171.013 302.117 170.86H302.122Z" fill="#FFB200"/>
<path d="M345.348 111.363L355.176 139.545L370.23 125.623C370.877 126.306 371.537 126.985 372.201 127.65C373.494 128.939 374.819 130.202 376.157 131.447C371.788 139.784 363.271 152.839 352.788 152.839C337.384 152.839 323.039 111.368 323.039 111.368H345.348V111.363Z" fill="#FFDA08"/>
<path d="M373.566 123.525L377.486 118.006C377.486 118.006 387.578 126.513 386.779 127.043C386.021 127.547 379.995 124.936 379.394 124.675L378.379 126.279L373.566 123.52V123.525Z" fill="#1B193B"/>
<path d="M305.915 176.949L305.377 183.695C305.377 183.695 292.352 181.569 292.765 180.706C293.156 179.884 299.67 179.034 300.317 178.954L300.366 177.053L305.911 176.949H305.915Z" fill="#1B193B"/>
<path d="M314.01 90.173C315.824 90.2943 328.395 90.128 328.395 90.128L328.674 81.0276L313.633 81.814L309.31 79.0098L310.993 85.8587L314.006 90.173H314.01Z" fill="#FFB200"/>
<path d="M344.635 109.546C344.657 110.319 344.684 111.083 344.715 111.843H322.855C322.909 110.994 322.954 110.14 323.003 109.286C323.021 108.985 323.039 108.688 323.057 108.391C323.084 107.879 323.116 107.371 323.142 106.864C323.16 106.54 323.178 106.221 323.196 105.902C323.214 105.61 323.232 105.327 323.246 105.043V105.012C323.331 103.56 323.421 102.113 323.524 100.693C323.542 100.397 323.564 100.095 323.587 99.7989C323.668 98.6799 323.758 97.5788 323.865 96.5048C323.892 96.2037 323.919 95.907 323.951 95.6104C324.058 94.5813 324.171 93.5836 324.305 92.6174C324.346 92.3163 324.391 92.0197 324.435 91.7231C324.62 90.5052 324.831 89.3412 325.078 88.2582C325.145 87.9481 325.217 87.656 325.284 87.3594C325.535 86.3842 325.814 85.4809 326.133 84.654C326.249 84.3439 326.375 84.0383 326.505 83.7462C327.017 82.6182 327.614 81.6789 328.319 80.9688H338.991C344.738 80.9239 344.284 96.2576 344.298 96.5587C344.361 97.6597 344.401 98.7877 344.433 99.9292C344.446 100.226 344.451 100.527 344.459 100.824C344.495 102.248 344.518 103.691 344.545 105.133V105.183C344.545 105.457 344.554 105.744 344.563 106.028C344.563 106.338 344.572 106.652 344.581 106.962C344.581 107.524 344.599 108.086 344.612 108.648C344.621 108.944 344.626 109.245 344.635 109.546Z" fill="#FFDA08"/>
<path d="M336.212 79.7254C336.212 79.7254 338.605 80.9254 338.717 80.9254C338.829 80.9254 336.212 82.7994 336.212 82.7994L337.86 83.3971L330.115 87.3653C330.115 87.3653 328.844 83.2443 328.732 83.1724C328.62 83.096 329.855 82.687 329.855 82.687C329.855 82.687 328.957 81.0782 328.844 81.0018C328.732 80.9254 330.618 79.5996 330.618 79.5996L336.212 79.7299V79.7254Z" fill="#FFB200"/>
<path d="M331.336 85.0099C331.336 85.0099 336.499 81.7877 336.513 80.9473H330.613C330.353 82.4168 331.336 85.0099 331.336 85.0099Z" fill="#784346"/>
<path d="M335.354 75.7559L335.552 82.0745H332.036L332.688 77.0591" fill="#784346"/>
<path d="M337.958 75.9188C337.958 78.0579 336.221 79.7927 334.088 79.7927C331.956 79.7927 330.919 79.6443 330.515 78.9298C330.479 78.8714 330.447 78.804 330.42 78.7365C330.362 78.5927 330.321 78.431 330.295 78.2422C330.277 78.1388 330.268 78.031 330.254 77.9141C330.209 77.3973 330.218 76.7412 330.218 75.9188C330.218 73.7841 331.951 72.0449 334.088 72.0449C336.225 72.0449 337.958 73.7841 337.958 75.9188Z" fill="#784346"/>
<path d="M328.71 77.2485L331.354 77.7743L331.556 75.6397L330.33 75.1543C329.908 76.1115 329.41 76.916 328.705 77.2485H328.71Z" fill="#784346"/>
<path d="M334.964 75.7561C335 75.7561 336.001 74.7045 336.45 75.9134C336.903 77.1223 335.839 78.1244 334.802 77.6975" fill="#784346"/>
<path d="M331.704 76.2725C331.704 76.2725 331.718 76.286 331.722 76.2905C331.996 76.5646 331.574 76.987 331.3 76.7129L331.282 76.6949C331.008 76.4208 331.43 75.9983 331.704 76.2725Z" fill="#1B193B"/>
<path d="M332.131 77.6309C332.059 77.6533 331.866 78.6645 330.42 78.7364C330.362 78.5926 330.321 78.4308 330.295 78.242C330.277 78.1387 330.268 78.0308 330.254 77.914C330.941 77.8106 332.086 77.6309 332.131 77.6309Z" fill="#FEFEFE"/>
<path d="M295.558 73.9146C295.558 73.9146 296.563 73.0248 296.505 72.3147C296.447 71.6047 295.414 71.1148 295.028 70.4093C294.646 69.6992 294.669 69.2363 294.669 69.2363C294.669 69.2363 293.906 69.8655 294.238 70.4947C294.566 71.1193 295.032 71.7755 295.032 71.7755C295.032 71.7755 293.888 72.4586 294.22 73.6585C294.548 74.8584 295.558 73.9146 295.558 73.9146Z" fill="#66393B"/>
<path d="M290.731 69.8871C290.83 69.8871 293.035 69.9545 293.012 70.4893C292.985 71.0196 290.862 70.6466 290.552 70.5657C290.242 70.4848 290.13 69.8691 290.731 69.8871Z" fill="#66393B"/>
<path d="M290.686 70.7498C290.785 70.7363 292.46 70.7947 292.541 71.1273C292.622 71.4599 291.225 71.4913 290.646 71.4104C290.067 71.3295 290.332 70.7902 290.686 70.7498Z" fill="#66393B"/>
<path d="M290.906 71.5322C290.906 71.5322 292.249 71.3524 292.298 71.6176C292.348 71.8872 291.055 72.1928 290.677 72.022C290.305 71.8468 290.52 71.5277 290.902 71.5322H290.906Z" fill="#66393B"/>
<path d="M291.01 72.1796C291.01 72.1796 292.146 72.0269 292.186 72.2516C292.226 72.4763 291.131 72.7414 290.817 72.5931C290.502 72.4448 290.686 72.1752 291.01 72.1796Z" fill="#66393B"/>
<path d="M327.071 106.481C327.34 99.3269 327.91 91.9972 330.874 85.3819C331.107 84.8606 330.335 84.4022 330.097 84.928C327.066 91.6961 326.451 99.1562 326.173 106.481C326.151 107.061 327.048 107.061 327.071 106.481Z" fill="#FFB200"/>
<path d="M331.938 106.935C335.588 116.004 339.274 125.118 344.217 133.576C346.659 137.756 349.416 141.76 352.577 145.431C352.972 145.89 353.367 146.353 353.785 146.793C354.117 147.144 354.507 147.44 355.01 147.436C355.554 147.427 356.038 147.076 356.483 146.802C356.977 146.496 357.471 146.177 357.956 145.854C359.873 144.568 361.709 143.153 363.437 141.62C367.375 138.133 370.756 134.03 373.449 129.513C373.746 129.015 372.969 128.561 372.673 129.06C370.365 132.938 367.546 136.488 364.29 139.612C362.679 141.157 360.968 142.6 359.163 143.917C358.27 144.568 357.358 145.189 356.425 145.782C356.016 146.038 355.262 146.712 354.763 146.465C354.319 146.245 353.915 145.598 353.596 145.234C347.427 138.191 342.879 129.913 339.009 121.433C336.8 116.584 334.798 111.641 332.809 106.702C332.593 106.171 331.727 106.405 331.942 106.94L331.938 106.935Z" fill="#FFB200"/>
<path d="M344.581 106.964C337.397 107.607 330.214 108.33 323.142 106.865C323.16 106.541 323.178 106.222 323.196 105.903C323.214 105.611 323.232 105.328 323.246 105.045C330.259 106.564 337.406 105.836 344.545 105.184C344.545 105.458 344.554 105.746 344.563 106.029C344.563 106.339 344.572 106.654 344.581 106.964Z" fill="#FFB200"/>
<path d="M331.049 74.8928C331.049 74.8928 332.319 74.6321 332.768 75.5669" stroke="#1B193B" stroke-width="0.75" stroke-miterlimit="10"/>
<path d="M334.295 74.8532C333.922 75.6307 333.554 76.4037 333.181 77.1811C333.464 77.3789 333.792 77.5137 334.138 77.5721C334.187 77.2261 334.241 76.871 334.394 76.5564C334.546 76.2419 334.816 75.9632 335.157 75.8913C335.498 75.8194 335.902 76.0082 335.992 76.3452C336.046 76.5565 335.978 76.7856 335.866 76.9699C335.651 77.3339 335.265 77.5946 334.847 77.662C335.045 78.2103 335.247 78.7585 335.444 79.3068C335.458 79.3472 335.476 79.3922 335.507 79.4236C335.579 79.4911 335.696 79.4686 335.794 79.4371C337.047 79.0237 338.066 77.9541 338.412 76.6778C339.238 76.7362 340.082 76.2778 340.482 75.5498C340.589 75.352 340.67 75.1139 340.598 74.8981C340.526 74.6824 340.253 74.5296 340.064 74.6555C340.464 74.0263 340.621 73.2488 340.504 72.5118C340.45 72.1792 340.32 71.8287 340.019 71.6714C339.723 71.5186 339.26 71.7254 339.296 72.0579C339.404 71.4377 339.157 70.7636 338.668 70.3637C338.192 69.9727 337.37 69.9187 337.043 70.4356C336.836 69.9727 336.508 69.5637 336.1 69.2581C335.821 69.0514 335.485 68.8896 335.139 68.9301C334.793 68.9705 334.47 69.2761 334.51 69.6221C334.115 69.4559 333.72 69.2941 333.325 69.1413C332.984 69.0065 332.607 68.8716 332.252 68.9705C331.897 69.0694 331.619 69.5098 331.825 69.8154C331.475 69.6626 331.094 69.5862 330.708 69.5862C330.398 69.5862 330.057 69.6536 329.855 69.8918C329.652 70.13 329.688 70.5704 329.976 70.6827C329.756 70.6243 329.518 70.7457 329.383 70.9299C329.248 71.1142 329.195 71.3434 329.168 71.5681C329.127 71.8871 329.141 72.2422 329.347 72.4938C329.608 72.8174 330.079 72.8534 330.492 72.8668C330.797 72.8758 331.121 72.8803 331.376 72.7185C331.089 72.759 330.972 73.1634 331.13 73.4106C331.282 73.6578 331.592 73.7612 331.879 73.7881C332.373 73.8376 332.881 73.7207 333.307 73.4601C333.249 73.7836 333.186 74.1027 333.127 74.4263C333.11 74.5206 333.092 74.6195 333.127 74.7094C333.19 74.8892 333.41 74.9521 333.594 74.988L334.892 75.2442" fill="#1B193B"/>
<path d="M347.809 125.323L340.958 130.397L302.912 79.03L295.481 68.9993L299.76 68.9453L302.149 63.6738L309.669 73.8259L347.809 125.323Z" fill="#DBD7D7"/>
<path d="M351.912 124.216L337.316 104.744L326.124 89.8054L323.353 86.1113C322.339 86.8439 321.239 87.6393 320.089 88.4572C317.97 89.9807 315.703 91.612 313.557 93.158C312.385 93.9984 311.245 94.8163 310.185 95.5803L313.153 99.535L324.346 114.473L338.942 133.946L351.908 124.207L351.912 124.216Z" fill="#973FA6"/>
<path d="M348.693 126.631L345.075 129.345L316.305 91.1863C317.58 90.2695 318.859 89.3482 320.085 88.4629L325.288 95.4062L348.689 126.626L348.693 126.631Z" fill="#682F8D"/>
<path d="M309.669 73.8249C308.47 75.2945 307.02 76.6067 305.341 77.6988C304.555 78.2066 303.742 78.6515 302.916 79.029C294.601 82.831 284.531 80.0627 279.413 72.1486C275.637 66.3199 275.511 59.1743 278.452 53.4085L288.594 69.0792L295.486 69.0028L299.765 68.9489L302.153 63.6774L304.331 58.8777L294.188 43.2025C300.649 42.8834 307.114 45.9169 310.881 51.7457C315.425 58.7699 314.688 67.6816 309.669 73.8249Z" fill="#DBD7D7"/>
<path d="M297.03 45.2109C298.588 45.2334 300.07 45.6558 301.484 46.2266C302.889 46.8153 304.227 47.5883 305.417 48.5455C305.727 48.7702 305.996 49.0444 306.284 49.2915L306.71 49.6735L307.105 50.087L307.891 50.9184L308.605 51.8127L308.959 52.2621L309.278 52.7385L309.911 53.6912C310.311 54.3428 310.657 55.0214 311.029 55.6865L310.908 55.745C310.356 55.1742 309.916 54.5585 309.422 53.9923L308.686 53.1474C308.56 53.0081 308.452 52.8598 308.331 52.7205L307.945 52.3205C307.684 52.0599 307.437 51.7902 307.2 51.5161L306.405 50.7701L306.019 50.3881L305.606 50.0375C305.327 49.8083 305.067 49.5567 304.775 49.3455L303.922 48.6848C303.63 48.4781 303.316 48.2983 303.029 48.0826C302.431 47.6827 301.798 47.3321 301.161 46.9861C299.877 46.321 298.503 45.7322 297.035 45.3413L297.017 45.2109H297.03Z" fill="#FEFEFE"/>
<path d="M284.931 75.8926C286.888 76.679 288.76 77.4206 290.695 77.9733C291.656 78.2654 292.63 78.4991 293.614 78.7059C294.601 78.935 295.603 79.0519 296.658 79.2631L296.671 79.3979C295.63 79.4519 294.579 79.4788 293.542 79.335C292.505 79.2182 291.477 79.0025 290.48 78.6969C289.479 78.3958 288.504 78.0228 287.562 77.5734C286.619 77.1239 285.707 76.6116 284.85 76.0049L284.931 75.8971V75.8926Z" fill="#FEFEFE"/>
<path d="M348.752 101.634L329.612 99L328.903 101.544C328.903 101.544 346.323 110.491 351.715 108.415C353.071 106.743 348.752 101.629 348.752 101.629V101.634Z" fill="#784346"/>
<path d="M338.264 81.0955C334.425 82.4932 335.758 88.3849 336.966 91.2745C338.174 94.1642 341.137 98.438 342.798 100.609C338.192 99.9885 332.625 99.4357 332.625 99.4357L332.122 105.175C332.122 105.175 347.387 110.46 351.769 108.743C352.644 107.997 352.644 106.878 352.676 106.455C352.958 102.595 343.907 78.8755 338.268 81.0955H338.264Z" fill="#FFE419"/>
<path d="M327.946 97.0446C327.691 96.8873 327.363 96.8154 326.869 96.9817C326.537 97.0941 325.046 98.1052 324.961 98.4423C324.88 98.7793 326.245 100.954 326.972 100.456C327.529 100.325 327.699 100.092 327.753 99.9837C327.695 100.159 327.538 100.707 327.789 101.112C328.09 101.597 329.199 101.624 329.199 101.624L330.16 99.7635C330.16 99.7635 328.202 97.2109 327.946 97.0536V97.0446Z" fill="#784346"/>
<path d="M327.444 99.1666C327.444 99.1666 326.182 100.389 326.384 100.713C326.586 101.036 327.111 101.638 327.515 101.526C327.915 101.414 327.47 101.027 327.47 101.027L327.075 100.708L328.063 99.7598L327.444 99.1621V99.1666Z" fill="#784346"/>
<path d="M326.667 100.434C327.08 100.128 327.493 99.818 327.902 99.5124C327.996 99.4405 328.054 99.3146 327.982 99.2068C327.924 99.1124 327.776 99.0495 327.677 99.1259C327.264 99.4315 326.851 99.7416 326.442 100.047C326.348 100.119 326.29 100.245 326.362 100.353C326.42 100.447 326.568 100.51 326.667 100.434Z" fill="#47222C"/>
<path d="M326.151 99.6778C326.6 99.3722 327.053 99.0621 327.502 98.7565C327.601 98.6891 327.65 98.5543 327.583 98.4509C327.52 98.3565 327.381 98.2981 327.277 98.37C326.829 98.6756 326.375 98.9857 325.926 99.2913C325.827 99.3587 325.778 99.4935 325.845 99.5969C325.908 99.6912 326.047 99.7497 326.151 99.6778Z" fill="#47222C"/>
<path d="M325.652 98.9864C326.101 98.6808 326.555 98.3707 327.004 98.0651C327.102 97.9977 327.152 97.8629 327.084 97.7595C327.022 97.6651 326.882 97.6067 326.779 97.6786C326.33 97.9842 325.877 98.2943 325.428 98.5999C325.329 98.6673 325.28 98.8021 325.347 98.9055C325.41 98.9998 325.549 99.0583 325.652 98.9864Z" fill="#47222C"/>
<path d="M234.933 99.8638L233.856 98.7493C234.857 97.3562 235.522 95.7922 235.84 94.1699L237.394 94.1968C238.31 94.2148 239.068 93.4823 239.082 92.5655L239.095 91.6982C239.113 90.7814 238.382 90.0219 237.466 90.0084L235.912 89.9814C235.652 88.3501 235.041 86.7592 234.089 85.3346L235.203 84.256C235.863 83.6179 235.881 82.5663 235.243 81.9056L234.637 81.281C234 80.6203 232.949 80.6024 232.289 81.2405L231.176 82.3191C229.784 81.3169 228.221 80.6518 226.601 80.3327L226.628 78.7778C226.645 77.861 225.914 77.1015 224.998 77.088L224.131 77.0745C223.215 77.0566 222.457 77.7891 222.443 78.7059L222.416 80.2608C220.786 80.5215 219.197 81.1327 217.774 82.0854L216.696 80.9709C216.059 80.3103 215.008 80.2923 214.348 80.9304L213.724 81.5371C213.064 82.1753 213.046 83.2269 213.684 83.8875L214.761 85.002C213.76 86.3952 213.096 87.9591 212.777 89.5815L211.223 89.5545C210.308 89.5365 209.549 90.269 209.535 91.1858L209.522 92.0532C209.504 92.97 210.236 93.7295 211.152 93.7429L212.705 93.7699C212.965 95.4012 213.576 96.9921 214.528 98.4167L213.414 99.4953C212.754 100.133 212.736 101.185 213.374 101.846L213.98 102.47C214.618 103.131 215.668 103.149 216.328 102.511L217.442 101.432C218.833 102.434 220.396 103.1 222.017 103.419L221.99 104.974C221.972 105.89 222.704 106.65 223.619 106.663L224.486 106.677C225.402 106.695 226.161 105.962 226.174 105.045L226.201 103.491C227.831 103.23 229.42 102.619 230.843 101.666L231.921 102.78C232.558 103.441 233.609 103.459 234.269 102.821L234.893 102.214C235.553 101.576 235.571 100.524 234.933 99.8638ZM228.028 98.5246C227.422 98.8617 226.78 99.1133 226.12 99.2751C224.845 99.5852 223.503 99.5627 222.237 99.2077C221.581 99.0234 220.948 98.7538 220.355 98.3943C219.808 98.0617 219.291 97.6528 218.824 97.1719C218.358 96.691 217.967 96.1607 217.657 95.599C217.32 94.9923 217.069 94.3496 216.907 93.689C216.598 92.4127 216.62 91.069 216.975 89.8017C217.159 89.1455 217.428 88.5119 217.787 87.9187C218.12 87.3704 218.528 86.8536 219.009 86.3862C219.489 85.9188 220.019 85.5278 220.58 85.2177C221.186 84.8807 221.828 84.629 222.488 84.4672C223.763 84.1572 225.106 84.1796 226.372 84.5346C227.027 84.7189 227.66 84.9886 228.253 85.3481C228.801 85.6806 229.317 86.0896 229.784 86.5705C230.251 87.0513 230.641 87.5816 230.951 88.1434C231.288 88.7501 231.539 89.3927 231.701 90.0533C232.011 91.3296 231.988 92.6734 231.634 93.9407C231.449 94.5968 231.18 95.2305 230.821 95.8237C230.489 96.372 230.08 96.8888 229.6 97.3562C229.119 97.8235 228.59 98.2145 228.028 98.5246Z" fill="#EFEFEF"/>
<path d="M258.864 87.2895L257.957 86.0356C259.146 84.7998 260.022 83.3392 260.565 81.7798L262.101 82.027C263.007 82.1753 263.861 81.5551 264.004 80.6473L264.143 79.7889C264.292 78.8811 263.672 78.0273 262.765 77.8835L261.23 77.6363C261.198 75.9825 260.821 74.3242 260.08 72.7782L261.333 71.8704C262.074 71.3311 262.244 70.293 261.705 69.5515L261.194 68.8459C260.655 68.1044 259.618 67.9336 258.877 68.4729L257.624 69.3807C256.39 68.1898 254.931 67.3135 253.373 66.7697L253.62 65.2327C253.768 64.3249 253.148 63.4711 252.241 63.3273L251.384 63.1879C250.477 63.0396 249.624 63.6598 249.48 64.5676L249.233 66.1046C247.581 66.136 245.924 66.5135 244.38 67.255L243.473 66.0012C242.934 65.2597 241.897 65.0889 241.156 65.6282L240.451 66.1405C239.71 66.6798 239.54 67.7179 240.079 68.4594L240.986 69.7133C239.796 70.9491 238.92 72.4097 238.377 73.9691L236.842 73.722C235.935 73.5737 235.082 74.1938 234.938 75.1016L234.799 75.96C234.651 76.8678 235.27 77.7217 236.177 77.8655L237.713 78.1126C237.744 79.7665 238.121 81.4248 238.862 82.9707L237.609 83.8785C236.869 84.4178 236.698 85.4559 237.237 86.1974L237.748 86.903C238.287 87.6445 239.324 87.8153 240.065 87.276L241.318 86.3682C242.552 87.5591 244.012 88.4355 245.57 88.9792L245.323 90.5162C245.174 91.424 245.794 92.2779 246.701 92.4217L247.558 92.561C248.465 92.7093 249.318 92.0891 249.462 91.1813L249.709 89.6444C251.361 89.6129 253.018 89.2354 254.562 88.4939L255.469 89.7477C256.008 90.4892 257.045 90.66 257.786 90.1207L258.491 89.6084C259.232 89.0691 259.402 88.031 258.864 87.2895ZM252.214 84.9885C251.568 85.2357 250.894 85.3975 250.221 85.4604C248.914 85.5862 247.59 85.375 246.387 84.8447C245.767 84.5706 245.174 84.2111 244.64 83.7706C244.142 83.3662 243.693 82.8853 243.298 82.3415C242.903 81.7978 242.593 81.218 242.364 80.6203C242.117 79.9732 241.955 79.2991 241.892 78.625C241.767 77.3172 241.978 75.9915 242.508 74.7871C242.781 74.1669 243.141 73.5737 243.581 73.0389C243.985 72.54 244.465 72.0906 245.008 71.6952C245.552 71.2997 246.131 70.9896 246.728 70.7604C247.374 70.5087 248.048 70.3514 248.721 70.2885C250.028 70.1627 251.352 70.3739 252.555 70.9042C253.175 71.1783 253.768 71.5379 254.302 71.9783C254.8 72.3827 255.249 72.8636 255.644 73.4074C256.039 73.9512 256.349 74.5309 256.578 75.1286C256.83 75.7757 256.987 76.4499 257.05 77.124C257.175 78.4317 256.964 79.7575 256.435 80.9619C256.161 81.582 255.802 82.1753 255.362 82.71C254.957 83.2089 254.477 83.6583 253.934 84.0538C253.391 84.4492 252.811 84.7593 252.214 84.9885Z" fill="#EFEFEF"/>
<path d="M257.53 113.998L256.713 113.018C257.62 111.935 258.253 110.691 258.612 109.378L259.887 109.495C260.637 109.563 261.306 109.01 261.369 108.255L261.432 107.54C261.499 106.79 260.947 106.12 260.192 106.057L258.917 105.94C258.801 104.583 258.397 103.244 257.696 102.017L258.675 101.199C259.254 100.714 259.33 99.8509 258.85 99.2711L258.392 98.7229C257.907 98.1431 257.045 98.0667 256.466 98.5476L255.487 99.3655C254.405 98.4577 253.162 97.8241 251.851 97.4645L251.967 96.1882C252.035 95.4377 251.482 94.7681 250.728 94.7052L250.014 94.6423C249.265 94.5749 248.596 95.1276 248.533 95.8826L248.416 97.1589C247.06 97.2758 245.722 97.6803 244.496 98.3813L243.679 97.4016C243.194 96.8219 242.332 96.7455 241.753 97.2264L241.206 97.6848C240.626 98.1701 240.55 99.033 241.03 99.6127L241.848 100.592C240.941 101.675 240.308 102.92 239.948 104.233L238.673 104.116C237.924 104.048 237.255 104.601 237.192 105.356L237.129 106.071C237.062 106.821 237.614 107.491 238.368 107.554L239.643 107.671C239.76 109.028 240.164 110.367 240.864 111.594L239.886 112.412C239.306 112.897 239.23 113.76 239.71 114.34L240.168 114.888C240.653 115.468 241.515 115.544 242.095 115.063L243.073 114.245C244.155 115.153 245.399 115.787 246.71 116.146L246.593 117.423C246.526 118.173 247.078 118.843 247.832 118.906L248.546 118.969C249.296 119.036 249.965 118.483 250.028 117.728L250.145 116.452C251.5 116.335 252.838 115.931 254.064 115.229L254.881 116.209C255.366 116.789 256.228 116.865 256.807 116.384L257.355 115.926C257.934 115.441 258.01 114.578 257.53 113.998ZM251.94 112.488C251.424 112.731 250.881 112.897 250.329 112.991C249.265 113.171 248.165 113.072 247.145 112.704C246.62 112.515 246.117 112.254 245.65 111.922C245.219 111.616 244.82 111.252 244.47 110.825C244.119 110.398 243.828 109.944 243.603 109.464C243.361 108.947 243.194 108.403 243.1 107.85C242.921 106.785 243.019 105.684 243.388 104.664C243.576 104.138 243.837 103.635 244.169 103.167C244.474 102.736 244.838 102.336 245.264 101.986C245.686 101.631 246.144 101.343 246.625 101.118C247.141 100.876 247.684 100.709 248.236 100.615C249.3 100.435 250.4 100.534 251.42 100.902C251.945 101.091 252.448 101.352 252.915 101.684C253.346 101.99 253.745 102.354 254.095 102.781C254.45 103.203 254.737 103.662 254.962 104.143C255.204 104.66 255.371 105.203 255.465 105.756C255.644 106.821 255.546 107.922 255.177 108.942C254.989 109.468 254.729 109.971 254.396 110.439C254.091 110.87 253.727 111.27 253.301 111.621C252.879 111.976 252.421 112.263 251.94 112.488Z" fill="#EFEFEF"/>
<path d="M241.529 36.582L185.493 65.0832" stroke="#DBD7D7" stroke-width="21" stroke-miterlimit="10"/>
<path d="M222.933 37.9746L182.436 58.5708C180.438 59.5865 179.288 61.6088 179.284 63.703C179.284 64.5883 179.481 65.4826 179.908 66.323L181.196 68.8622C182.638 71.6979 186.104 72.8349 188.941 71.3923L229.438 50.7961L222.928 37.9746H222.933Z" fill="#4557B0"/>
<path d="M255.07 54.397C254.926 50.4962 253.925 47.2111 250.594 45.5842L258.199 41.7148C257.975 44.7978 259.972 47.6919 262.675 50.5277L255.07 54.397Z" fill="#345C7A"/>
<path d="M236.003 28.7072L244.625 45.6956C245.276 46.9791 246.844 47.491 248.126 46.839L257.492 42.0763C258.775 41.4243 259.286 39.8553 258.635 38.5719L250.013 21.5834C249.362 20.3 247.794 19.7881 246.512 20.44L237.145 25.2028C235.863 25.8548 235.352 27.4237 236.003 28.7072Z" fill="#407B9C"/>
<path d="M253.255 54.6011L254.515 57.0853C255.178 58.3908 256.772 58.9116 258.077 58.2484L264.045 55.2136C265.349 54.5504 265.869 52.9544 265.207 51.6488L263.946 49.1647C263.284 47.8591 261.689 47.3383 260.385 48.0016L254.417 51.0363C253.112 51.6995 252.592 53.2955 253.255 54.6011Z" fill="#407B9C"/>
<path d="M250.813 23.2215C246.494 14.3143 239.172 8.75968 231.795 5.74418C231.171 5.48802 230.668 6.30144 231.18 6.73287C237.659 12.2111 240.986 19.833 242.288 28.8256" fill="#407B9C"/>
<path d="M224.356 40.7799L179.284 63.6995C179.284 64.5848 179.481 65.4791 179.908 66.3195L180.348 67.1869L225.977 43.9796L224.351 40.7754L224.356 40.7799Z" fill="#36449A"/>
<path d="M246.58 43.9299L239.122 29.2389L239.221 29.1895C240.038 30.313 240.793 31.4679 241.479 32.6633C241.834 33.2521 242.153 33.8588 242.494 34.4565L243.446 36.2811C244.057 37.5124 244.654 38.7483 245.197 40.0111C245.749 41.2694 246.243 42.5592 246.679 43.8805L246.58 43.9299Z" fill="#FEFEFE"/>
<path d="M199.662 46.901C199.326 47.4223 198.994 47.9571 198.684 48.5098C197.808 50.0873 197.09 51.7321 196.273 53.332C196.443 53.4084 196.605 53.4758 196.744 53.5297C199.541 54.6217 217.258 55.6913 217.258 55.6913L216.854 52.523L201.162 47.9885C201.162 47.9885 200.605 47.5751 199.658 46.8965L199.662 46.901Z" fill="#784346"/>
<path d="M197.005 49.664C197.862 49.3449 198.711 49.0259 199.555 48.6708C200.547 48.2529 201.737 47.6147 202.81 47.5743C202.814 47.5743 202.819 47.5743 202.828 47.5743C206.137 40.2445 210.797 28.4521 207.29 27.0141C202.451 25.2299 200.152 30.4475 199.07 33.8944C198.01 37.2784 194.585 46.6935 193.889 49.8168C194.558 49.9606 195.222 50.1674 195.873 50.3966C196.192 50.082 196.569 49.8258 197.009 49.664H197.005Z" fill="#FFE419"/>
<path d="M216.777 52.6607C216.777 52.6607 219.624 56.7638 219.484 57.0919C219.345 57.4199 218.721 56.8267 218.609 57.0379C218.497 57.2492 218.982 57.8918 218.618 58.2019C218.259 58.512 217.662 57.8424 217.662 57.8424C217.662 57.8424 218.106 58.6917 217.765 59.0198C217.424 59.3479 216.773 58.4581 216.773 58.4581C216.773 58.4581 217.213 59.0648 216.898 59.4827C216.584 59.9006 215.691 58.7771 215.125 57.8244C214.559 56.8762 213.863 54.6246 214.654 53.9595C215.444 53.2989 216.768 52.6562 216.768 52.6562L216.777 52.6607Z" fill="#784346"/>
<path d="M216.526 52.5312C217.59 52.7604 218.667 52.8773 218.798 53.7716C218.928 54.6659 219.794 55.3895 219.794 55.3895C219.794 55.3895 219.431 55.8029 218.883 55.4479C218.335 55.0929 218.281 54.3693 218.281 54.3693L216.692 54.23L216.526 52.5312Z" fill="#784346"/>
<path d="M193.26 49.5065L202.976 47.4707L202.76 48.1942L203.959 48.4684L196.304 54.0275C196.304 54.0275 194.724 54.1039 194.661 53.4568C194.598 52.8096 194.351 52.158 194.351 52.158C194.351 52.158 192.052 50.7154 193.26 49.502V49.5065Z" fill="#FFB200"/>
</g>
<defs>
<clipPath id="clip0_0_1">
<rect width="299" height="178" fill="white" transform="translate(87.8242 5.69531)"/>
</clipPath>
</defs>
</svg>
